<?xml version="1.0" encoding="UTF-8" standalone="no"?>
<svg width="463px" height="296px" viewBox="0 0 463 296" version="1.1" xmlns="http://www.w3.org/2000/svg" xmlns:xlink="http://www.w3.org/1999/xlink">
    <!-- Generator: Sketch 45.1 (43504) - http://www.bohemiancoding.com/sketch -->
    <title>Hosting</title>
    <desc>Created with Sketch.</desc>
    <defs></defs>
    <g id="SVG" stroke="none" stroke-width="1" fill="none" fill-rule="evenodd">
        <g id="Translations-Hosting" transform="translate(-82.000000, -1.000000)">
            <g id="Hosting" transform="translate(82.000000, 0.000000)">
                <path d="M386.291215,104.127809 C417.179172,111.149926 428,138.449787 428,171.5 C428,209.860202 409.222286,241.210356 370.912125,241.210356 C367.885727,241.210356 364.995334,240.693703 362.071718,240.316348 C334.479059,274.595302 291.594519,296.713673 243.299838,296.713673 C200.401802,296.713673 161.774985,279.244141 134.316255,251.336551 C127.804566,252.79815 121.052011,253.634982 114.09908,253.634982 C63.2337763,253.634982 22,212.343267 22,161.419141 C22,123.98933 44.3091798,91.8372837 76.3132182,77.3834682 C81.379711,44.0213925 109.897421,18.370652 144.634043,18.370652 C153.274075,18.370652 161.46352,20.1482717 169.095444,23.0382031 C191.018408,10.9763777 216.302076,4 243.299838,4 C309.920065,4 366.338785,45.9757347 386.291215,104.127809 Z" id="Fill-1" fill="#98DFE5"></path>
                <g id="Clouds" stroke-width="1" transform="translate(0.000000, 1.000000)" fill="#FFFFFF">
                    <path d="M405.489905,8.41673731 C398.395713,2.91036647 389.910042,0 380.950225,0 C372.796344,0 364.937923,2.45112932 358.225011,7.08824983 C351.999776,11.3880744 347.140812,17.2811516 344.114293,24.184998 C337.228628,24.7078161 330.825079,27.725021 325.97427,32.7592893 C320.832079,38.0961731 318,45.1189775 318,52.5342683 C318,59.9844261 320.854878,67.031283 326.038774,72.3769302 C331.212847,77.7125088 338.1265,80.7595463 345.505587,80.9564422 C345.553965,80.957188 411.815604,80.9404071 414.693466,80.9376103 C421.550401,80.6092641 427.870539,77.7033725 432.576398,72.7530087 C437.298013,67.7860504 439.898209,61.2739446 439.898209,54.4165253 C439.898209,41.9843064 431.346736,31.2803331 419.40433,28.5353517 C416.964839,20.622787 412.055642,13.5129085 405.489905,8.41673731 Z" id="Cloud"></path>
                    <path d="M56.0241619,77.2819267 C51.481396,73.7559221 46.0475962,71.8922689 40.3101777,71.8922689 C35.0888397,71.8922689 30.0566995,73.4618496 25.7580866,76.4312298 C21.7717571,79.1846225 18.6603191,82.9582545 16.7222876,87.3791327 C12.3130522,87.7139193 8.21253922,89.6459864 5.10632379,92.8696802 C1.8135218,96.2871539 -3.26849658e-13,100.784207 -3.26849658e-13,105.532588 C-3.26849658e-13,110.303297 1.82812113,114.815752 5.14762922,118.238837 C8.46084654,121.655475 12.8880047,123.606646 17.6132029,123.732728 C17.6441819,123.733205 60.0748235,123.72246 61.9176626,123.720669 C66.3085005,123.510412 70.3556013,121.649625 73.3689982,118.479659 C76.3924841,115.299067 78.05752,111.12904 78.05752,106.737892 C78.05752,98.7769201 72.5815839,91.9226306 64.9342643,90.1648817 C63.3721358,85.0980709 60.2285319,80.54526 56.0241619,77.2819267 Z" id="Cloud"></path>
                </g>
                <g id="Group" stroke-width="1" transform="translate(21.449219, 33.907806)">
                    <g id="Group-5" transform="translate(0.000000, 0.882448)">
                        <g id="Group-4" transform="translate(64.076955, 16.170363)">
                            <path d="M51.8183796,3.15655047 C51.8183796,1.41439611 50.3847986,0 48.6177447,0 L32.6145698,0 C30.8475159,0 29.4139349,1.41439611 29.4139349,3.15655047 C29.4139349,3.15655047 28.9975347,6.04983421 26.2132999,6.31133405 L51.8183796,6.31133405 L51.8183796,3.15655047 Z" id="Fill-5" fill="#FF9B00"></path>
                            <path d="M25.9119772,5.40790143 L25.3718282,5.40790143 L3.23910876,5.40790143 C1.4508136,5.40790143 0,6.7865497 0,8.55054 L0,37.3447982 C0,39.1078945 1.4508136,40.5383985 3.23910876,40.5383985 L48.5857385,40.5383985 C50.3731409,40.5383985 51.8248473,39.1078945 51.8248473,37.3447982 L51.8248473,11.795102 L51.8248473,8.55054 L51.8248473,5.40790143 L25.9119772,5.40790143 Z" id="Fill-3" fill="#FFBA00"></path>
                        </g>
                        <g id="Group-3" transform="translate(42.395035, 69.848465)">
                            <path d="M74.1596734,53.5524975 C74.1596734,54.6439314 73.3035523,55.5023265 72.212585,55.5023265 L4.22461346,55.5023265 C3.13471365,55.5023265 2.27859254,54.6439314 2.27859254,53.5524975 L2.27859254,10.8935744 L74.2375996,10.8935744 L74.2375996,53.5524975 L74.1596734,53.5524975 Z" id="Path" fill="#FFFFFF"></path>
                            <path d="M74.1596734,53.5524975 C74.1596734,54.6439314 73.3035523,55.5023265 72.212585,55.5023265 L4.22461346,55.5023265 C3.13471365,55.5023265 2.27859254,54.6439314 2.27859254,53.5524975 L2.27859254,10.8935744 L74.2375996,10.8935744 L74.2375996,53.5524975 L74.1596734,53.5524975 Z M5.31558075,4.41980007 C5.93792315,4.41980007 6.40548056,4.88801559 6.40548056,5.51230294 C6.40548056,6.13659029 5.93792315,6.60373682 5.31558075,6.60373682 C4.69217087,6.60373682 4.22461346,6.13659029 4.22461346,5.51230294 C4.22461346,4.88801559 4.69217087,4.41980007 5.31558075,4.41980007 L5.31558075,4.41980007 Z M8.89805261,4.41980007 C9.520395,4.41980007 9.98795242,4.88801559 9.98795242,5.51230294 C9.98795242,6.13659029 9.520395,6.60373682 8.89805261,6.60373682 C8.27464272,6.60373682 7.80708531,6.13659029 7.80708531,5.51230294 C7.80708531,4.88801559 8.35256896,4.41980007 8.89805261,4.41980007 L8.89805261,4.41980007 Z M12.5573832,4.41980007 C13.1807931,4.41980007 13.6483505,4.88801559 13.6483505,5.51230294 C13.6483505,6.13659029 13.1807931,6.60373682 12.5573832,6.60373682 C11.9350408,6.60373682 11.4674834,6.13659029 11.4674834,5.51230294 C11.4674834,4.88801559 11.9350408,4.41980007 12.5573832,4.41980007 L12.5573832,4.41980007 Z M24.4736923,4.41980007 L51.9645736,4.41980007 C52.5879835,4.41980007 53.0544734,4.88801559 53.0544734,5.51230294 C53.0544734,6.13659029 52.5879835,6.60373682 51.9645736,6.60373682 L24.4736923,6.60373682 C23.8502824,6.60373682 23.3837925,6.13659029 23.3837925,5.51230294 C23.3837925,4.88801559 23.8502824,4.41980007 24.4736923,4.41980007 L24.4736923,4.41980007 Z M4.22461346,0.131031476 C1.9668876,0.131031476 0.0977254367,2.00282455 0.0977254367,4.26479722 L0.0977254367,53.4744616 C0.0977254367,55.7364343 1.9668876,57.6082274 4.22461346,57.6082274 L72.212585,57.6082274 C74.4713783,57.6082274 76.3405405,55.7364343 76.3405405,53.4744616 L76.3405405,4.26479722 C76.3405405,2.00282455 74.4713783,0.131031476 72.212585,0.131031476 L4.22461346,0.131031476 Z" id="Fill-9" fill="#003D54"></path>
                            <path d="M34.4418455,19.2379659 L62.9457679,19.2379659 C63.4901841,19.2379659 63.9577415,18.7697504 63.9577415,18.223499 C63.9577415,17.6783165 63.4901841,17.210101 62.9457679,17.210101 L34.4418455,17.210101 C33.8963619,17.210101 33.4298719,17.6783165 33.4298719,18.223499 C33.4298719,18.8477863 33.8963619,19.2379659 34.4418455,19.2379659" id="Fill-11" fill="#003D54"></path>
                            <path d="M34.4418455,24.6972733 L62.9457679,24.6972733 C63.4901841,24.6972733 63.9577415,24.2290578 63.9577415,23.6828064 C63.9577415,23.1376239 63.4901841,22.6694084 62.9457679,22.6694084 L34.4418455,22.6694084 C33.8963619,22.6694084 33.4298719,23.1376239 33.4298719,23.6828064 C33.4298719,24.3070937 33.8963619,24.6972733 34.4418455,24.6972733" id="Fill-13" fill="#003D54"></path>
                            <path d="M34.4418455,30.1559393 L62.9457679,30.1559393 C63.4901841,30.1559393 63.9577415,29.6887928 63.9577415,29.1425413 C63.9577415,28.5962899 63.4901841,28.1291434 62.9457679,28.1291434 L34.4418455,28.1291434 C33.8963619,28.1291434 33.4298719,28.5962899 33.4298719,29.1425413 C33.4298719,29.6887928 33.8963619,30.1559393 34.4418455,30.1559393" id="Fill-15" fill="#003D54"></path>
                            <path d="M14.5052188,30.9362985 L27.744139,30.9362985 C28.9130325,30.9362985 29.8470798,30.0009364 29.8470798,28.8303977 L29.8470798,18.5360702 C29.8470798,17.3666004 28.9130325,16.4301694 27.744139,16.4301694 L14.5052188,16.4301694 C13.3363253,16.4301694 12.402278,17.3666004 12.402278,18.5360702 L12.402278,28.8303977 C12.4802042,30.0009364 13.415319,30.9362985 14.5052188,30.9362985" id="Fill-17" fill="#003D54"></path>
                            <path d="M41.9183874,46.7675416 L13.4144651,46.7675416 C12.8700489,46.7675416 12.4024915,47.2357571 12.4024915,47.7820086 C12.4024915,48.327191 12.8700489,48.7954065 13.4144651,48.7954065 L41.9183874,48.7954065 C42.4638711,48.7954065 42.930361,48.327191 42.930361,47.7820086 C42.930361,47.1577212 42.4638711,46.7675416 41.9183874,46.7675416" id="Fill-19" fill="#003D54"></path>
                            <path d="M41.9183874,41.3082342 L13.4144651,41.3082342 C12.8700489,41.3082342 12.4024915,41.7764497 12.4024915,42.3227012 C12.4024915,42.8678836 12.8700489,43.3360991 13.4144651,43.3360991 L41.9183874,43.3360991 C42.4638711,43.3360991 42.930361,42.8678836 42.930361,42.3227012 C42.930361,41.6984138 42.4638711,41.3082342 41.9183874,41.3082342" id="Fill-21" fill="#003D54"></path>
                            <path d="M41.9183874,35.8495682 L13.4144651,35.8495682 C12.8700489,35.8495682 12.4024915,36.3167148 12.4024915,36.8629662 C12.4024915,37.4092176 12.8700489,37.8763642 13.4144651,37.8763642 L41.9183874,37.8763642 C42.4638711,37.8763642 42.930361,37.4092176 42.930361,36.8629662 C42.930361,36.3167148 42.4638711,35.8495682 41.9183874,35.8495682" id="Fill-23" fill="#003D54"></path>
                            <path d="M61.8549074,35.069209 L48.6159872,35.069209 C47.4470937,35.069209 46.5130464,36.0045711 46.5130464,37.1751099 L46.5130464,47.4694373 C46.5130464,48.6389071 47.4470937,49.5753381 48.6159872,49.5753381 L61.8549074,49.5753381 C63.0227334,49.5753381 63.9578482,48.6389071 63.9578482,47.4694373 L63.9578482,37.1751099 C63.879922,36.0045711 62.9448072,35.069209 61.8549074,35.069209" id="Fill-25" fill="#003D54"></path>
                        </g>
                        <path d="M401.9348,199.148446 L323.383384,199.148446 C317.56084,199.148446 312.79694,194.377841 312.79694,188.547101 L312.79694,87.3095572 C312.79694,81.4788175 317.56084,76.7082123 323.383384,76.7082123 L401.9348,76.7082123 C407.757344,76.7082123 412.521244,81.4788175 412.521244,87.3095572 L412.521244,188.547101 C412.521244,194.377841 407.757344,199.148446 401.9348,199.148446 Z" id="Stroke-27" stroke="#000000" stroke-width="2" fill="#FFFFFF"></path>
                        <polygon id="Fill-29" fill="#003D54" points="341.994672 97.1647442 396.367532 97.1647442 396.367532 93.7723138 341.994672 93.7723138"></polygon>
                        <polygon id="Fill-31" fill="#003D54" points="320.821783 108.649535 375.194643 108.649535 375.194643 105.257104 320.821783 105.257104"></polygon>
                        <polygon id="Fill-32" fill="#003D54" points="338.465857 120.134325 392.838717 120.134325 392.838717 116.741895 338.465857 116.741895"></polygon>
                        <polygon id="Fill-33" points="93.0253237 229.4979 331.033291 229.4979 331.033291 225.599255 93.0253237 225.599255"></polygon>
                        <path d="M342.47415,210.478733 L92.017406,210.478733 L92.017406,52.5823009 C92.017406,45.8451461 97.4711891,40.3836866 104.201521,40.3836866 L330.290035,40.3836866 C337.020366,40.3836866 342.47415,45.8451461 342.47415,52.5823009 L342.47415,210.478733 Z" id="Fill-35" fill="#003D54"></path>
                        <path d="M101.673037,198.264482 L101.673037,52.580799 C101.673037,51.1876056 102.808433,50.0523782 104.201433,50.0523782 L330.290829,50.0523782 C331.68471,50.0523782 332.813931,51.1876056 332.813931,52.580799 L332.813931,198.264482 L101.673037,198.264482 Z" id="Fill-36" fill="#DFF5F7"></path>
                        <polygon id="Fill-37" fill="#2DAEB6" points="126.529655 172.93089 177.464567 172.93089 177.464567 123.30246 126.529655 123.30246"></polygon>
                        <polygon id="Fill-38" fill="#FFFFFF" points="116.92416 184.310612 315.306185 184.310612 315.306185 60.9498281 116.92416 60.9498281"></polygon>
                        <path d="M193.186142,210.16299 L233.910429,210.16299 C233.910429,210.16299 233.969537,214.017462 229.243571,214.017462 L198.092077,214.017462 C198.092077,214.017462 193.186142,214.483921 193.186142,210.16299" id="Fill-39" fill="#003D54"></path>
                        <path d="M360.278873,210.16299 L233.910252,210.16299 C233.910252,212.314179 232.220832,214.064285 230.152947,214.064285 L196.95474,214.064285 C194.873622,214.064285 193.185966,212.314179 193.185966,210.16299 L66.8464587,210.16299 L66.8464587,218.444407 L360.278873,218.444407 L360.278873,210.16299 Z" id="Fill-40" fill="#FFFFFF"></path>
                        <path d="M66.8466351,218.443965 L66.8466351,218.601219 L83.7664196,223.378008 C88.5338483,224.725262 93.4406652,225.405515 98.3827702,225.405515 L329.390451,225.405515 C334.513408,225.405515 339.602841,224.671372 344.532595,223.225172 L360.279049,218.601219 L360.279049,218.443965 L66.8466351,218.443965 Z" id="Fill-41" fill="#ADC0C8"></path>
                        <polygon id="Fill-42" fill="#003D54" opacity="0.300000012" points="67.1829312 212.022466 193.595661 212.022466 193.595661 209.579739 67.1829312 209.579739"></polygon>
                        <g id="Group-2" transform="translate(33.642752, 151.393325)">
                            <polygon id="Fill-43" points="3.82686791 80.9972034 40.5274234 80.9972034 40.5274234 78.6949447 3.82686791 78.6949447"></polygon>
                            <path d="M44.6380514,74.4953985 C44.6380514,76.8117924 42.964511,78.6899974 40.8992722,78.6899974 L4.13960911,78.6899974 C2.07525249,78.6899974 0.400829902,76.8117924 0.400829902,74.4953985 L0.400829902,4.47616519 C0.400829902,2.15977131 2.07525249,0.281566355 4.13960911,0.281566355 L40.8992722,0.281566355 C42.964511,0.281566355 44.6380514,2.15977131 44.6380514,4.47616519 L44.6380514,74.4953985 Z" id="Fill-46" fill="#003D54"></path>
                            <path d="M24.6579906,3.5648029 C24.6579906,3.90051216 24.5441863,4.17261335 24.403916,4.17261335 L20.35019,4.17261335 C20.2099196,4.17261335 20.0969976,3.90051216 20.0969976,3.5648029 C20.0969976,3.22997709 20.2099196,2.9578759 20.35019,2.9578759 L24.403916,2.9578759 C24.5441863,2.9578759 24.6579906,3.22997709 24.6579906,3.5648029" id="Fill-47" fill="#FFFFFF"></path>
                            <polygon id="Fill-48" fill="#FFFFFF" points="3.97507813 66.1376515 41.0646854 66.1376515 41.0646854 6.57664501 3.97507813 6.57664501"></polygon>
                            <path d="M22.5898405,68.9648535 C21.0353976,68.9648535 19.7703175,70.2317143 19.7703175,71.7874617 C19.7703175,73.3449759 21.0353976,74.6109532 22.5898405,74.6109532 C24.1442834,74.6109532 25.4084813,73.3449759 25.4084813,71.7874617 C25.4084813,70.2317143 24.1442834,68.9648535 22.5898405,68.9648535 M22.5898405,75.1569225 C20.733684,75.1569225 19.2251157,73.6453474 19.2251157,71.7874617 C19.2251157,69.9295759 20.733684,68.4180008 22.5898405,68.4180008 C24.4451149,68.4180008 25.9545654,69.9295759 25.9545654,71.7874617 C25.9545654,73.6453474 24.4451149,75.1569225 22.5898405,75.1569225" id="Fill-49" fill="#FFFFFF"></path>
                            <path d="M24.615292,71.7877267 C24.615292,70.6675179 23.7083866,69.759336 22.5897523,69.759336 C21.471118,69.759336 20.5650948,70.6675179 20.5650948,71.7877267 C20.5650948,72.9088189 21.471118,73.8161174 22.5897523,73.8161174 C23.7083866,73.8161174 24.615292,72.9088189 24.615292,71.7877267" id="Fill-50" fill="#FFFFFF"></path>
                        </g>
                        <path d="M260.738047,158.028835 L172.29007,158.028835 C166.468408,158.028835 161.703626,153.258229 161.703626,147.42749 C161.703626,141.59675 166.468408,136.826145 172.29007,136.826145 L260.738047,136.826145 C266.560591,136.826145 271.324491,141.59675 271.324491,147.42749 C271.324491,153.258229 266.560591,158.028835 260.738047,158.028835" id="Fill-77" fill="#809FAA"></path>
                        <g id="Group-6" transform="translate(200.019847, 87.071183)" fill="#546A70">
                            <path d="M30.3629693,39.6638268 C30.3629693,40.1921272 29.9342183,40.6214816 29.4066605,40.6214816 L3.02877039,40.6214816 C2.50033039,40.6214816 2.0724616,40.1921272 2.0724616,39.6638268 L2.0724616,18.4001791 C2.0724616,17.8709953 2.50033039,17.4425243 3.02877039,17.4425243 L29.4066605,17.4425243 C29.9342183,17.4425243 30.3629693,17.8709953 30.3629693,18.4001791 L30.3629693,39.6638268 Z M29.4066605,15.5272146 L8.08909072,15.5272146 L8.08909072,11.5543606 C8.08909072,6.497519 11.5834995,2.68545203 16.2177155,2.68545203 C20.9278009,2.68545203 24.3463402,6.27400731 24.3463402,11.2177679 C24.3463402,11.7469517 24.774209,12.1754227 25.302649,12.1754227 C25.831089,12.1754227 26.2589578,11.7469517 26.2589578,11.2177679 C26.2589578,5.26157886 21.9423352,0.770142369 16.2177155,0.770142369 C10.4930958,0.770142369 6.17647314,5.40646391 6.17647314,11.5543606 L6.17647314,15.5272146 L3.02877039,15.5272146 C1.44697919,15.5272146 0.159844014,16.8161615 0.159844014,18.4001791 L0.159844014,39.6638268 C0.159844014,41.2478444 1.44697919,42.5367913 3.02877039,42.5367913 L29.4066605,42.5367913 C30.9884517,42.5367913 32.2755869,41.2478444 32.2755869,39.6638268 L32.2755869,18.4001791 C32.2755869,16.8161615 30.9884517,15.5272146 29.4066605,15.5272146 L29.4066605,15.5272146 Z" id="Fill-80"></path>
                            <path d="M16.217539,30.1293305 C14.6181037,30.1293305 13.3159711,28.8253651 13.3159711,27.2236785 C13.3159711,25.621992 14.6181037,24.31891 16.217539,24.31891 C17.8169743,24.31891 19.1182247,25.621992 19.1182247,27.2236785 C19.1182247,28.8253651 17.8169743,30.1293305 16.217539,30.1293305 M21.0317245,27.2236785 C21.0317245,24.5662747 18.8720899,22.4036003 16.217539,22.4036003 C13.5629881,22.4036003 11.4033535,24.5662747 11.4033535,27.2236785 C11.4033535,29.5833612 13.1068888,31.5490273 15.3459218,31.9615963 L15.3459218,36.4168115 C15.3459218,36.9451119 15.7746728,37.3744664 16.3022306,37.3744664 C16.8297884,37.3744664 17.2585394,36.9451119 17.2585394,36.4168115 L17.2585394,31.9280254 C19.413763,31.4509648 21.0317245,29.5241704 21.0317245,27.2236785" id="Fill-81"></path>
                        </g>
                        <path d="M204.119864,152.62139 L205.239743,150.622838 L200.794686,148.348623 L205.239743,146.091637 L204.119864,144.058627 L199.898784,146.866938 L200.174446,141.801641 L197.865773,141.801641 L198.141436,146.866938 L193.920355,144.058627 L192.800477,146.091637 L197.262762,148.348623 L192.800477,150.622838 L193.920355,152.62139 L198.141436,149.847537 L197.865773,154.878376 L200.174446,154.878376 L199.898784,149.864766 L204.119864,152.62139 Z M221.521053,152.62139 L222.640932,150.622838 L218.195876,148.348623 L222.640932,146.091637 L221.521053,144.058627 L217.299973,146.866938 L217.575635,141.801641 L215.266963,141.801641 L215.542625,146.866938 L211.321544,144.058627 L210.201666,146.091637 L214.663951,148.348623 L210.201666,150.622838 L211.321544,152.62139 L215.542625,149.847537 L215.266963,154.878376 L217.575635,154.878376 L217.299973,149.864766 L221.521053,152.62139 Z M238.922243,152.62139 L240.042121,150.622838 L235.597065,148.348623 L240.042121,146.091637 L238.922243,144.058627 L234.701162,146.866938 L234.976825,141.801641 L232.668152,141.801641 L232.943814,146.866938 L228.722734,144.058627 L227.602855,146.091637 L232.06514,148.348623 L227.602855,150.622838 L228.722734,152.62139 L232.943814,149.847537 L232.668152,154.878376 L234.976825,154.878376 L234.701162,149.864766 L238.922243,152.62139 Z" id="***" fill="#FFFFFF"></path>
                        <path d="M3.1132968,185.237742 L4.42866249,185.237742 L4.42866249,187.09386 C3.8552301,187.342109 3.46088505,187.741426 3.46088505,188.464084 C3.46088505,189.186743 4.15782596,190.016298 5.11325255,190.016298 C6.06867914,190.016298 6.9200057,189.19381 6.9200057,188.464084 C6.9200057,187.735242 6.50713437,187.317372 5.91164689,187.077075 L5.91164689,185.237742 L9.61866677,185.237742 L9.61866677,187.045271 C8.97818689,187.269666 8.60325033,187.721107 8.60325033,188.464084 C8.60325033,189.207945 9.40340907,189.990678 10.3588357,189.990678 C11.3142622,189.990678 11.9988523,189.197344 11.9988523,188.490588 C11.9988523,187.782064 11.629209,187.316489 11.1016512,187.054989 L11.1016512,185.237742 L14.6013532,185.237742 L14.6013532,187.175137 C14.1187878,187.446355 13.7209139,187.771463 13.7209139,188.464084 C13.7209139,189.156705 14.366687,190.016298 15.4253314,189.990678 C16.4830936,189.965058 17.1165159,189.466795 17.1676837,188.618687 C17.2197337,187.771463 16.7671632,187.312955 16.0843376,187.108879 L16.0843376,185.237742 L20.3674364,185.237742 L20.3674364,186.995798 C19.7066659,187.190156 19.4217141,187.69372 19.4217141,188.464084 C19.4217141,189.235332 20.1962889,189.990678 21.1517155,189.990678 C22.1080243,189.990678 22.8049652,189.218547 22.8049652,188.464084 C22.8049652,187.710505 22.4670812,187.089443 21.8504208,187.057639 L21.8504208,185.237742 L23.1666687,185.237742 C24.8799083,185.237742 26.2808477,186.640653 26.2808477,188.356304 L26.2808477,203.982686 L23.808913,203.982686 L23.808913,193.323034 L2.55397966,193.323034 L2.55397966,210.153553 L18.975319,210.153553 L18.9735546,205.120564 L26.2790833,205.115263 C25.5177416,209.26569 23.7498054,211.656293 19.2832081,213.040652 L3.1132968,213.040652 C1.40093945,213.040652 0,211.637741 0,209.92209 L0,188.356304 C0,186.640653 1.40093945,185.237742 3.1132968,185.237742 L3.1132968,185.237742 Z M4.59539899,198.974434 L7.86484584,198.974434 L7.86484584,195.700386 L4.59539899,195.700386 L4.59539899,198.974434 Z M9.20226663,198.974434 L12.4717135,198.974434 L12.4717135,195.700386 L9.20226663,195.700386 L9.20226663,198.974434 Z M13.8091343,198.974434 L17.0785811,198.974434 L17.0785811,195.700386 L13.8091343,195.700386 L13.8091343,198.974434 Z M18.4160019,198.974434 L21.6854488,198.974434 L21.6854488,195.700386 L18.4160019,195.700386 L18.4160019,198.974434 Z M4.59539899,203.426116 L7.86484584,203.426116 L7.86484584,200.152067 L4.59539899,200.152067 L4.59539899,203.426116 Z M9.20226663,203.426116 L12.4717135,203.426116 L12.4717135,200.152067 L9.20226663,200.152067 L9.20226663,203.426116 Z M13.8091343,203.426116 L17.0785811,203.426116 L17.0785811,200.152067 L13.8091343,200.152067 L13.8091343,203.426116 Z M18.4160019,203.426116 L21.6854488,203.426116 L21.6854488,200.152067 L18.4160019,200.152067 L18.4160019,203.426116 Z M4.59539899,207.878681 L7.86484584,207.878681 L7.86484584,204.604632 L4.59539899,204.604632 L4.59539899,207.878681 Z M9.20226663,207.878681 L12.4717135,207.878681 L12.4717135,204.604632 L9.20226663,204.604632 L9.20226663,207.878681 Z M13.8091343,207.878681 L17.0785811,207.878681 L17.0785811,204.604632 L13.8091343,204.604632 L13.8091343,207.878681 Z" id="Fill-83" fill="#4DACE8"></path>
                        <path d="M337.535946,184.96382 C331.713402,184.96382 326.949502,180.193215 326.949502,174.362475 L326.949502,150.741664 C326.949502,144.910924 331.713402,140.140319 337.535946,140.140319 L375.938272,140.140319 C381.760817,140.140319 386.524717,144.910924 386.524717,150.741664 L386.524717,174.362475 C386.524717,180.193215 381.760817,184.96382 375.938272,184.96382 L337.535946,184.96382 Z" id="Fill-85" fill="#FFFFFF"></path>
                        <path d="M345.700388,161.972618 C344.707909,162.955009 343.769244,163.881743 342.845577,164.820846 L332.731112,174.920394 C332.120627,175.528204 331.839204,176.217292 332.095925,177.053031 C332.555553,178.572557 334.330547,178.93742 335.523287,177.75272 C339.725223,173.560771 343.922748,169.357338 348.11498,165.143303 C348.269365,164.961314 348.409636,164.766956 348.534026,164.561996 C348.881615,164.880037 349.11187,165.078812 349.338596,165.284655 L354.393623,169.883871 C355.354343,170.753182 356.357409,170.743464 357.32254,169.87062 C359.071067,168.286602 360.818713,166.699934 362.566358,165.110616 C362.725155,164.961314 362.901596,164.814662 363.098327,164.632672 C364.678354,166.21934 366.223975,167.774204 367.769596,169.325534 L376.19023,177.75802 C376.761016,178.331376 377.415611,178.600827 378.212241,178.387034 C379.755215,177.96828 380.198081,176.169586 379.029161,174.989302 C376.215814,172.152559 373.393644,169.32465 370.562652,166.50646 C369.057613,165.001069 367.543751,163.499211 366.013128,161.96555 C366.212506,161.776493 366.375714,161.620123 366.541568,161.46817 L372.69141,155.874194 L378.982404,150.146817 C379.587596,149.595547 379.828438,148.918828 379.628178,148.130795 C379.47291,147.419621 378.921532,146.862167 378.213123,146.697846 C377.419139,146.486703 376.776013,146.77824 376.183172,147.319792 C369.58076,153.341356 362.969525,159.359386 356.349469,165.373883 C356.190672,165.521418 356.019525,165.663653 355.843084,165.817372 L346.381449,157.208197 C342.741477,153.903227 339.097976,150.593841 335.45271,147.279154 C334.877513,146.754387 334.236151,146.501722 333.465988,146.718166 C332.763753,146.887787 332.219434,147.443474 332.063284,148.150231 C331.872728,148.945332 332.12592,149.6141 332.731112,150.162719 C335.336259,152.527703 337.939642,154.895336 340.539497,157.266504 L345.700388,161.972618 Z M324.075812,179.458653 L324.075812,145.64743 C324.125215,145.515796 324.166679,145.380629 324.200202,145.242812 C324.85568,141.49877 328.110129,138.698248 331.911545,138.694714 C347.872374,138.680579 363.833203,138.680579 379.794032,138.694714 C383.411949,138.694714 386.546419,141.239921 387.397745,144.762218 C387.470086,145.058172 387.556542,145.353243 387.629765,145.649197 L387.629765,179.458653 C387.584773,179.547881 387.548602,179.641526 387.522136,179.737822 C386.932824,183.040141 384.639977,185.58093 381.383763,186.192274 C379.859315,186.480277 378.258115,186.408718 376.693086,186.409601 C361.828836,186.423736 346.964586,186.423736 332.098572,186.409601 C328.443602,186.409601 325.374415,184.094974 324.381054,180.640703 C324.269014,180.258171 324.178147,179.85797 324.075812,179.458653 L324.075812,179.458653 Z" id="Fill-87" fill="#FFBD35"></path>
                        <path d="M440.325325,140.499283 L425.088785,140.499283 C424.420075,140.499283 423.878402,141.039952 423.878402,141.70872 C423.878402,142.04973 424.021319,142.355402 424.247163,142.57538 L434.978288,153.322493 L434.984464,153.32161 C435.204133,153.55749 435.51555,153.706792 435.863139,153.706792 C436.281303,153.706792 436.649182,153.493882 436.866204,153.171424 C439.503111,150.107635 441.200471,146.209874 441.510125,141.926931 C441.523358,141.855372 441.533944,141.782929 441.533944,141.70872 C441.531297,141.039952 440.992271,140.499283 440.325325,140.499283" id="Fill-89" fill="#70C041"></path>
                        <path d="M420.830653,137.944271 L437.764552,137.944271 L437.766317,137.943387 C437.766317,137.943387 437.767199,137.944271 437.769846,137.944271 C438.437674,137.944271 438.9767,137.401835 438.9767,136.73395 C438.378566,126.971879 430.577239,119.162221 420.830653,118.561478 L420.826242,118.564128 C420.161942,118.567662 419.622916,119.107447 419.622916,119.774449 L419.622916,136.733067 C419.622916,137.401835 420.162824,137.944271 420.830653,137.944271" id="Fill-91" fill="#70C041"></path>
                        <path d="M429.794901,152.332239 L429.79049,152.330472 C429.788725,152.327822 429.786961,152.325172 429.786079,152.323405 L417.30025,139.819118 L417.30025,139.815585 C417.089403,139.598257 416.960602,139.302303 416.960602,138.975428 L416.957073,138.975428 L416.957073,121.302986 L416.957073,121.301219 C416.954426,120.635985 416.417164,120.097966 415.751982,120.097083 L415.7511,120.094433 C405.603993,120.718145 397.567118,129.158583 397.567118,139.476342 C397.567118,150.199602 406.248884,158.894472 416.957073,158.894472 C421.841834,158.894472 426.302256,157.086943 429.711974,154.103547 L429.711974,154.09913 C429.97487,153.877385 430.142489,153.549627 430.142489,153.180347 C430.142489,152.850822 430.010158,152.551334 429.794901,152.332239 Z" id="Fill-93" fill="#70C041"></path>
                        <path d="M300.428244,8.3210783 L311.853844,15.6030194 L300.428244,22.8833644 L300.428244,8.3210783 Z M293.156538,1.77635684e-15 C288.553144,1.77635684e-15 284.847156,3.71120411 284.847156,8.3210783 L284.847156,22.8833644 C284.847156,27.4932386 288.553144,31.2044427 293.156538,31.2044427 L318.087874,31.2044427 C322.691269,31.2044427 326.397256,27.4932386 326.397256,22.8833644 L326.397256,8.3210783 C326.397256,3.71120411 322.691269,1.77635684e-15 318.087874,1.77635684e-15 L293.156538,1.77635684e-15 Z" id="Fill-95" fill="#EC5D57"></path>
                        <path d="M55.4476206,192.870161 C54.0129752,190.646114 50.6656926,186.693331 50.6656926,186.693331 C53.7739793,187.187256 55.2086246,189.658264 55.2086246,189.658264 C57.8382498,183.976051 63.5768312,182.493584 63.5768312,182.493584 C58.5559072,186.199406 56.4036045,190.893769 55.4476206,192.870161 M46.6014221,187.187256 C46.6014221,192.870161 51.1436846,197.563832 56.6432699,197.563832 C62.1421858,197.563832 66.6851178,192.870161 66.6851178,187.187256 C66.6851178,181.505043 62.3811818,176.81068 56.6432699,176.81068 C51.1436846,176.81068 46.6014221,181.505043 46.6014221,187.187256 Z" id="Fill-1" fill="#77A240"></path>
                    </g>
                </g>
            </g>
        </g>
    </g>
</svg>