<?xml version="1.0" encoding="UTF-8" standalone="no"?>
<svg width="506px" height="206px" viewBox="0 0 506 206" version="1.1" xmlns="http://www.w3.org/2000/svg" xmlns:xlink="http://www.w3.org/1999/xlink">
    <!-- Generator: Sketch 41.2 (35397) - http://www.bohemiancoding.com/sketch -->
    <title>il-website-features-page-hosting-webhosting</title>
    <desc>Created with Sketch.</desc>
    <defs>
        <polygon id="path-1" points="0 205.103 505.556 205.103 505.556 0 0 0"></polygon>
    </defs>
    <g id="To-export" stroke="none" stroke-width="1" fill="none" fill-rule="evenodd">
        <g id="Features" transform="translate(-851.000000, -385.000000)">
            <g id="Hosting" transform="translate(756.000000, 0.000000)">
                <g id="Illustrations" transform="translate(87.000000, 161.000000)">
                    <g id="il-website-features-page-hosting-webhosting" transform="translate(8.000000, 224.000000)">
                        <path d="M253.4629,38.0675 C252.6809,33.7685 248.9199,30.5085 244.3959,30.5085 C243.4669,30.5085 242.5709,30.6475 241.7259,30.9025 C240.7129,24.5805 235.2349,19.7495 228.6269,19.7495 C222.5679,19.7495 217.4619,24.3305 215.8729,29.8785 C212.1489,31.0355 209.4389,34.1025 209.3949,39.1025 L209.2759,39.1025 C206.2709,39.1025 203.8359,41.0985 203.8359,44.1025 C203.8359,47.1075 206.2709,49.1025 209.2759,49.1025 L253.4409,49.1025 C256.4459,49.1025 258.8809,46.5895 258.8809,43.5845 C258.8809,40.5875 256.4569,38.0795 253.4629,38.0675 Z" id="Fill-1" fill="#FFFFFF"></path>
                        <path d="M209.2759,40.103 C207.3779,40.103 205.3359,41.198 205.3359,43.603 C205.3359,46.008 207.3779,47.103 209.2759,47.103 L253.4409,47.103 C255.6509,47.103 257.3809,45.448 257.3809,43.335 C257.3809,41.196 255.6939,39.577 253.4569,39.567 C252.7339,39.564 252.1169,39.047 251.9869,38.336 C251.3199,34.669 248.1279,32.008 244.3959,32.008 C243.6369,32.008 242.8849,32.12 242.1589,32.339 C241.7459,32.464 241.2969,32.404 240.9299,32.174 C240.5629,31.945 240.3129,31.568 240.2449,31.14 C239.3259,25.409 234.4399,21.249 228.6269,21.249 C223.4489,21.249 218.7969,24.865 217.3149,30.041 C217.1759,30.528 216.8009,30.911 216.3179,31.061 C212.7539,32.168 210.9289,34.71 210.8949,38.616 C210.8879,39.439 210.2179,40.103 209.3949,40.103 L209.2759,40.103 Z M253.4409,50.103 L209.2759,50.103 C205.3189,50.103 202.3359,47.309 202.3359,43.603 C202.3359,40.317 204.6819,37.748 207.9719,37.207 C208.4169,32.995 210.7519,29.936 214.6699,28.457 C216.7439,22.408 222.3749,18.249 228.6269,18.249 C235.3869,18.249 241.1489,22.734 242.8749,29.117 C243.3779,29.044 243.8859,29.008 244.3959,29.008 C249.1859,29.008 253.3379,32.168 254.6699,36.669 C257.9539,37.222 260.3809,39.956 260.3809,43.335 C260.3809,47.13 257.3329,50.103 253.4409,50.103 L253.4409,50.103 Z" id="Fill-3" fill="#E0E0E0"></path>
                        <path d="M174.4629,57.0675 C173.6809,52.7685 169.9199,49.5085 165.3959,49.5085 C164.4669,49.5085 163.5709,49.6475 162.7259,49.9025 C161.7129,43.5805 156.2349,38.7495 149.6269,38.7495 C143.5679,38.7495 138.4619,43.3305 136.8729,48.8785 C133.1489,50.0355 130.4389,53.1025 130.3949,58.1025 L130.2759,58.1025 C127.2709,58.1025 124.8359,60.0985 124.8359,63.1025 C124.8359,66.1075 127.2709,68.1025 130.2759,68.1025 L174.4409,68.1025 C177.4459,68.1025 179.8809,65.5895 179.8809,62.5845 C179.8809,59.5875 177.4569,57.0795 174.4629,57.0675" id="Fill-5" fill="#FFFFFF"></path>
                        <path d="M130.2759,59.103 C128.3779,59.103 126.3359,60.198 126.3359,62.603 C126.3359,65.008 128.3779,66.103 130.2759,66.103 L174.4409,66.103 C176.6509,66.103 178.3809,64.448 178.3809,62.335 C178.3809,60.196 176.6939,58.577 174.4569,58.567 C173.7339,58.564 173.1169,58.047 172.9869,57.336 C172.3199,53.669 169.1279,51.008 165.3959,51.008 C164.6369,51.008 163.8849,51.12 163.1589,51.339 C162.7449,51.464 162.2969,51.404 161.9299,51.174 C161.5629,50.945 161.3129,50.568 161.2449,50.14 C160.3259,44.409 155.4399,40.249 149.6269,40.249 C144.4489,40.249 139.7969,43.865 138.3149,49.041 C138.1759,49.528 137.8009,49.911 137.3179,50.061 C133.7539,51.168 131.9289,53.71 131.8949,57.616 C131.8879,58.439 131.2179,59.103 130.3949,59.103 L130.2759,59.103 Z M174.4409,69.103 L130.2759,69.103 C126.3189,69.103 123.3359,66.309 123.3359,62.603 C123.3359,59.317 125.6819,56.748 128.9719,56.207 C129.4169,51.995 131.7519,48.936 135.6699,47.457 C137.7439,41.408 143.3749,37.249 149.6269,37.249 C156.3869,37.249 162.1489,41.734 163.8749,48.117 C164.3779,48.044 164.8859,48.008 165.3959,48.008 C170.1859,48.008 174.3379,51.168 175.6699,55.669 C178.9539,56.222 181.3809,58.956 181.3809,62.335 C181.3809,66.13 178.3329,69.103 174.4409,69.103 L174.4409,69.103 Z" id="Fill-7" fill="#E0E0E0"></path>
                        <path d="M329.1437,71.7098 C328.6647,69.0768 326.3617,67.0798 323.5897,67.0798 C323.0207,67.0798 322.4727,67.1648 321.9547,67.3218 C321.3337,63.4488 317.9787,60.4898 313.9317,60.4898 C310.2207,60.4898 307.0927,63.1748 306.1197,66.5738 C303.8387,67.2828 302.1787,69.1028 302.1517,72.1028 L302.0787,72.1028 C300.2387,72.1028 298.7467,73.7628 298.7467,75.6028 C298.7467,77.4438 300.2387,79.1028 302.0787,79.1028 L329.1307,79.1028 C330.9707,79.1028 332.4627,77.2468 332.4627,75.4058 C332.4627,73.5698 330.9777,71.7168 329.1437,71.7098" id="Fill-9" fill="#FFFFFF"></path>
                        <path d="M313.9316,61.9897 C310.9346,61.9897 308.3746,63.8977 307.5616,66.7367 C307.4226,67.2227 307.0476,67.6057 306.5646,67.7567 C304.5956,68.3677 303.6696,69.5947 303.6516,71.6167 C303.6446,72.4397 302.9746,73.1027 302.1516,73.1027 C301.1196,73.1027 300.2466,74.0557 300.2466,75.1027 C300.2466,76.1497 301.1196,77.1027 302.0786,77.1027 L329.1306,77.1027 C330.1066,77.1027 330.9626,76.1937 330.9626,75.1567 C330.9626,74.1237 330.1096,73.2137 329.1376,73.2097 C328.4146,73.2067 327.7966,72.6897 327.6676,71.9787 C327.3096,70.0097 325.5946,68.5797 323.5896,68.5797 C323.1816,68.5797 322.7776,68.6397 322.3876,68.7577 C321.9726,68.8827 321.5246,68.8217 321.1586,68.5927 C320.7916,68.3627 320.5416,67.9857 320.4736,67.5587 C319.9566,64.3317 317.2046,61.9897 313.9316,61.9897 M329.1306,80.1027 L302.0786,80.1027 C299.4596,80.1027 297.2466,77.8137 297.2466,75.1027 C297.2466,72.8647 298.7566,70.9117 300.7586,70.3007 C301.1476,67.8987 302.5906,66.1137 304.9276,65.1587 C306.3236,61.4897 309.9186,58.9897 313.9316,58.9897 C318.1686,58.9897 321.8036,61.6917 323.0776,65.5987 C323.2476,65.5867 323.4186,65.5797 323.5896,65.5797 C326.6716,65.5797 329.3556,67.5407 330.3386,70.3737 C332.3946,70.9397 333.9626,72.9037 333.9626,75.1567 C333.9626,77.8377 331.7496,80.1027 329.1306,80.1027" id="Fill-11" fill="#E0E0E0"></path>
                        <path d="M79.1438,119.7098 C78.6648,117.0768 76.3618,115.0798 73.5898,115.0798 C73.0208,115.0798 72.4728,115.1648 71.9548,115.3218 C71.3338,111.4488 67.9788,108.4898 63.9318,108.4898 C60.2208,108.4898 57.0928,111.1748 56.1198,114.5738 C53.8388,115.2818 52.1788,117.1028 52.1518,120.1028 L52.0788,120.1028 C50.2388,120.1028 48.7468,121.7628 48.7468,123.6028 C48.7468,125.4438 50.2388,127.1028 52.0788,127.1028 L79.1308,127.1028 C80.9708,127.1028 82.4628,125.2468 82.4628,123.4058 C82.4628,121.5698 80.9778,119.7168 79.1438,119.7098" id="Fill-13" fill="#FFFFFF"></path>
                        <path d="M63.9316,109.9897 C60.9346,109.9897 58.3746,111.8977 57.5616,114.7367 C57.4226,115.2227 57.0476,115.6057 56.5646,115.7567 C54.5956,116.3677 53.6696,117.5947 53.6516,119.6167 C53.6446,120.4397 52.9746,121.1027 52.1516,121.1027 C51.1196,121.1027 50.2466,122.0557 50.2466,123.1027 C50.2466,124.1497 51.1196,125.1027 52.0786,125.1027 L79.1306,125.1027 C80.1066,125.1027 80.9626,124.1937 80.9626,123.1567 C80.9626,122.1237 80.1096,121.2137 79.1376,121.2097 C78.4146,121.2067 77.7966,120.6897 77.6676,119.9787 C77.3096,118.0097 75.5946,116.5797 73.5896,116.5797 C73.1816,116.5797 72.7776,116.6397 72.3876,116.7577 C71.9726,116.8817 71.5246,116.8227 71.1586,116.5927 C70.7916,116.3627 70.5416,115.9857 70.4736,115.5587 C69.9566,112.3317 67.2046,109.9897 63.9316,109.9897 M79.1306,128.1027 L52.0786,128.1027 C49.4596,128.1027 47.2466,125.8137 47.2466,123.1027 C47.2466,120.8647 48.7566,118.9117 50.7586,118.3007 C51.1476,115.8987 52.5906,114.1137 54.9276,113.1587 C56.3236,109.4897 59.9186,106.9897 63.9316,106.9897 C68.1686,106.9897 71.8036,109.6917 73.0776,113.5987 C76.3126,113.3677 79.3016,115.3827 80.3386,118.3737 C82.3946,118.9397 83.9626,120.9037 83.9626,123.1567 C83.9626,125.8377 81.7496,128.1027 79.1306,128.1027" id="Fill-15" fill="#E0E0E0"></path>
                        <path d="M324.9532,135.2017 C324.1792,130.9457 320.4562,127.7187 315.9772,127.7187 C315.0572,127.7187 314.1702,127.8557 313.3342,128.1087 C312.3312,121.8497 306.9082,117.0677 300.3662,117.0677 C294.3682,117.0677 289.3132,121.5407 287.7412,127.0337 C284.0542,128.1787 281.3712,131.1027 281.3272,136.1027 L281.2102,136.1027 C278.2352,136.1027 275.8242,138.1287 275.8242,141.1027 C275.8242,144.0777 278.2352,146.1027 281.2102,146.1027 L324.9312,146.1027 C327.9062,146.1027 330.3172,143.6267 330.3172,140.6517 C330.3172,137.6847 327.9172,135.2137 324.9532,135.2017" id="Fill-17" fill="#FFFFFF"></path>
                        <path d="M281.21,137.103 C279.279,137.103 277.324,138.305 277.324,140.603 C277.324,142.901 279.279,144.103 281.21,144.103 L324.932,144.103 C327.147,144.103 328.817,142.512 328.817,140.402 C328.817,138.301 327.154,136.71 324.947,136.702 C324.225,136.699 323.607,136.181 323.478,135.47 C322.818,131.848 319.664,129.219 315.977,129.219 C315.227,129.219 314.484,129.329 313.768,129.545 C313.354,129.67 312.906,129.61 312.538,129.38 C312.171,129.151 311.921,128.774 311.853,128.346 C310.945,122.68 306.114,118.567 300.367,118.567 C295.236,118.567 290.638,122.116 289.183,127.196 C289.043,127.682 288.669,128.065 288.186,128.216 C284.614,129.326 282.861,131.746 282.828,135.616 C282.82,136.439 282.151,137.103 281.328,137.103 L281.21,137.103 Z M324.932,147.103 L281.21,147.103 C277.285,147.103 274.324,144.309 274.324,140.603 C274.324,137.32 276.647,134.753 279.906,134.209 C280.352,130.079 282.664,127.074 286.538,125.611 C288.587,119.659 294.165,115.567 300.367,115.567 C307.062,115.567 312.768,120.005 314.482,126.324 C314.977,126.254 315.476,126.219 315.977,126.219 C320.723,126.219 324.836,129.346 326.16,133.804 C329.414,134.354 331.817,137.06 331.817,140.402 C331.817,144.16 328.793,147.103 324.932,147.103 L324.932,147.103 Z" id="Fill-19" fill="#0E3250"></path>
                        <path d="M302.0711,57.8446 L204.3871,57.8446 C202.7301,57.8446 201.3871,56.5016 201.3871,54.8446 L201.3871,24.9106 C201.3871,23.2536 202.7301,21.9106 204.3871,21.9106 L302.0711,21.9106 C303.7281,21.9106 305.0711,23.2536 305.0711,24.9106 L305.0711,54.8446 C305.0711,56.5016 303.7281,57.8446 302.0711,57.8446" id="Fill-21" fill="#1F8AEC"></path>
                        <path d="M204.3872,24.4106 C204.1112,24.4106 203.8872,24.6346 203.8872,24.9106 L203.8872,54.8446 C203.8872,55.1206 204.1112,55.3446 204.3872,55.3446 L302.0712,55.3446 C302.3472,55.3446 302.5712,55.1206 302.5712,54.8446 L302.5712,24.9106 C302.5712,24.6346 302.3472,24.4106 302.0712,24.4106 L204.3872,24.4106 Z M302.0712,60.3446 L204.3872,60.3446 C201.3542,60.3446 198.8872,57.8776 198.8872,54.8446 L198.8872,24.9106 C198.8872,21.8776 201.3542,19.4106 204.3872,19.4106 L302.0712,19.4106 C305.1042,19.4106 307.5712,21.8776 307.5712,24.9106 L307.5712,54.8446 C307.5712,57.8776 305.1042,60.3446 302.0712,60.3446 L302.0712,60.3446 Z" id="Fill-23" fill="#0E3250"></path>
                        <mask id="mask-2" fill="white">
                            <use xlink:href="#path-1"></use>
                        </mask>
                        <g id="Clip-26"></g>
                        <polygon id="Fill-25" fill="#FFFFFF" mask="url(#mask-2)" points="275.389 57.845 291.186 57.845 291.186 21.911 275.389 21.911"></polygon>
                        <path d="M277.889,55.345 L288.686,55.345 L288.686,24.411 L277.889,24.411 L277.889,55.345 Z M291.187,60.345 L275.389,60.345 C274.008,60.345 272.889,59.226 272.889,57.845 L272.889,21.911 C272.889,20.53 274.008,19.411 275.389,19.411 L291.187,19.411 C292.567,19.411 293.687,20.53 293.687,21.911 L293.687,57.845 C293.687,59.226 292.567,60.345 291.187,60.345 L291.187,60.345 Z" id="Fill-27" fill="#0E3250" mask="url(#mask-2)"></path>
                        <path d="M218.5907,39.8777 C218.5907,41.5437 217.2397,42.8947 215.5737,42.8947 C213.9077,42.8947 212.5577,41.5437 212.5577,39.8777 C212.5577,38.2117 213.9077,36.8607 215.5737,36.8607 C217.2397,36.8607 218.5907,38.2117 218.5907,39.8777" id="Fill-28" fill="#0E3250" mask="url(#mask-2)"></path>
                        <path d="M215.5742,39.3608 C215.2892,39.3608 215.0572,39.5928 215.0572,39.8778 C215.0572,40.1628 215.2892,40.3948 215.5742,40.3948 C215.8592,40.3948 216.0912,40.1628 216.0912,39.8778 C216.0912,39.5928 215.8592,39.3608 215.5742,39.3608 M215.5742,45.3948 C212.5322,45.3948 210.0572,42.9198 210.0572,39.8778 C210.0572,36.8358 212.5322,34.3608 215.5742,34.3608 C218.6162,34.3608 221.0912,36.8358 221.0912,39.8778 C221.0912,42.9198 218.6162,45.3948 215.5742,45.3948" id="Fill-29" fill="#0E3250" mask="url(#mask-2)"></path>
                        <path d="M236.304,39.8777 C236.304,41.5437 234.953,42.8947 233.287,42.8947 C231.621,42.8947 230.271,41.5437 230.271,39.8777 C230.271,38.2117 231.621,36.8607 233.287,36.8607 C234.953,36.8607 236.304,38.2117 236.304,39.8777" id="Fill-30" fill="#0E3250" mask="url(#mask-2)"></path>
                        <path d="M233.2871,39.3608 C233.0021,39.3608 232.7701,39.5928 232.7701,39.8778 C232.7701,40.1628 233.0021,40.3948 233.2871,40.3948 C233.5721,40.3948 233.8041,40.1628 233.8041,39.8778 C233.8041,39.5928 233.5721,39.3608 233.2871,39.3608 M233.2871,45.3948 C230.2451,45.3948 227.7701,42.9198 227.7701,39.8778 C227.7701,36.8358 230.2451,34.3608 233.2871,34.3608 C236.3291,34.3608 238.8041,36.8358 238.8041,39.8778 C238.8041,42.9198 236.3291,45.3948 233.2871,45.3948" id="Fill-31" fill="#0E3250" mask="url(#mask-2)"></path>
                        <path d="M219.7119,71.6303 C218.3309,71.6303 217.2119,70.5113 217.2119,69.1303 L217.2119,57.8443 C217.2119,56.4633 218.3309,55.3443 219.7119,55.3443 C221.0929,55.3443 222.2119,56.4633 222.2119,57.8443 L222.2119,69.1303 C222.2119,70.5113 221.0929,71.6303 219.7119,71.6303" id="Fill-32" fill="#0E3250" mask="url(#mask-2)"></path>
                        <path d="M283.2881,71.6303 C281.9071,71.6303 280.7881,70.5113 280.7881,69.1303 L280.7881,57.8443 C280.7881,56.4633 281.9071,55.3443 283.2881,55.3443 C284.6691,55.3443 285.7881,56.4633 285.7881,57.8443 L285.7881,69.1303 C285.7881,70.5113 284.6691,71.6303 283.2881,71.6303" id="Fill-33" fill="#0E3250" mask="url(#mask-2)"></path>
                        <path d="M302.0711,106.4419 L204.3871,106.4419 C202.7301,106.4419 201.3871,105.0989 201.3871,103.4419 L201.3871,73.5079 C201.3871,71.8509 202.7301,70.5079 204.3871,70.5079 L302.0711,70.5079 C303.7281,70.5079 305.0711,71.8509 305.0711,73.5079 L305.0711,103.4419 C305.0711,105.0989 303.7281,106.4419 302.0711,106.4419" id="Fill-34" fill="#1F8AEC" mask="url(#mask-2)"></path>
                        <path d="M204.3872,73.0083 C204.1112,73.0083 203.8872,73.2323 203.8872,73.5083 L203.8872,103.4423 C203.8872,103.7173 204.1112,103.9423 204.3872,103.9423 L302.0712,103.9423 C302.3472,103.9423 302.5712,103.7173 302.5712,103.4423 L302.5712,73.5083 C302.5712,73.2323 302.3472,73.0083 302.0712,73.0083 L204.3872,73.0083 Z M302.0712,108.9423 L204.3872,108.9423 C201.3542,108.9423 198.8872,106.4743 198.8872,103.4423 L198.8872,73.5083 C198.8872,70.4753 201.3542,68.0083 204.3872,68.0083 L302.0712,68.0083 C305.1042,68.0083 307.5712,70.4753 307.5712,73.5083 L307.5712,103.4423 C307.5712,106.4743 305.1042,108.9423 302.0712,108.9423 L302.0712,108.9423 Z" id="Fill-35" fill="#0E3250" mask="url(#mask-2)"></path>
                        <polygon id="Fill-36" fill="#FFFFFF" mask="url(#mask-2)" points="275.389 106.442 291.186 106.442 291.186 70.508 275.389 70.508"></polygon>
                        <path d="M277.889,103.942 L288.686,103.942 L288.686,73.008 L277.889,73.008 L277.889,103.942 Z M291.187,108.942 L275.389,108.942 C274.008,108.942 272.889,107.823 272.889,106.442 L272.889,70.508 C272.889,69.127 274.008,68.008 275.389,68.008 L291.187,68.008 C292.567,68.008 293.687,69.127 293.687,70.508 L293.687,106.442 C293.687,107.823 292.567,108.942 291.187,108.942 L291.187,108.942 Z" id="Fill-37" fill="#0E3250" mask="url(#mask-2)"></path>
                        <path d="M218.5907,88.475 C218.5907,90.141 217.2397,91.492 215.5737,91.492 C213.9077,91.492 212.5577,90.141 212.5577,88.475 C212.5577,86.809 213.9077,85.458 215.5737,85.458 C217.2397,85.458 218.5907,86.809 218.5907,88.475" id="Fill-38" fill="#0E3250" mask="url(#mask-2)"></path>
                        <path d="M215.5742,87.9585 C215.2892,87.9585 215.0572,88.1905 215.0572,88.4755 C215.0572,88.7595 215.2892,88.9915 215.5742,88.9915 C215.8592,88.9915 216.0912,88.7595 216.0912,88.4755 C216.0912,88.1905 215.8592,87.9585 215.5742,87.9585 M215.5742,93.9915 C212.5322,93.9915 210.0572,91.5175 210.0572,88.4755 C210.0572,85.4335 212.5322,82.9585 215.5742,82.9585 C218.6162,82.9585 221.0912,85.4335 221.0912,88.4755 C221.0912,91.5175 218.6162,93.9915 215.5742,93.9915" id="Fill-39" fill="#0E3250" mask="url(#mask-2)"></path>
                        <path d="M236.304,88.475 C236.304,90.141 234.953,91.492 233.287,91.492 C231.621,91.492 230.271,90.141 230.271,88.475 C230.271,86.809 231.621,85.458 233.287,85.458 C234.953,85.458 236.304,86.809 236.304,88.475" id="Fill-40" fill="#0E3250" mask="url(#mask-2)"></path>
                        <path d="M233.2871,87.9585 C233.0021,87.9585 232.7701,88.1905 232.7701,88.4755 C232.7701,88.7595 233.0021,88.9915 233.2871,88.9915 C233.5721,88.9915 233.8041,88.7595 233.8041,88.4755 C233.8041,88.1905 233.5721,87.9585 233.2871,87.9585 M233.2871,93.9915 C230.2451,93.9915 227.7701,91.5175 227.7701,88.4755 C227.7701,85.4335 230.2451,82.9585 233.2871,82.9585 C236.3291,82.9585 238.8041,85.4335 238.8041,88.4755 C238.8041,91.5175 236.3291,93.9915 233.2871,93.9915" id="Fill-41" fill="#0E3250" mask="url(#mask-2)"></path>
                        <path d="M219.7119,120.228 C218.3309,120.228 217.2119,119.109 217.2119,117.728 L217.2119,106.442 C217.2119,105.061 218.3309,103.942 219.7119,103.942 C221.0929,103.942 222.2119,105.061 222.2119,106.442 L222.2119,117.728 C222.2119,119.109 221.0929,120.228 219.7119,120.228" id="Fill-42" fill="#0E3250" mask="url(#mask-2)"></path>
                        <path d="M283.2881,120.228 C281.9071,120.228 280.7881,119.109 280.7881,117.728 L280.7881,106.442 C280.7881,105.061 281.9071,103.942 283.2881,103.942 C284.6691,103.942 285.7881,105.061 285.7881,106.442 L285.7881,117.728 C285.7881,119.109 284.6691,120.228 283.2881,120.228" id="Fill-43" fill="#0E3250" mask="url(#mask-2)"></path>
                        <path d="M302.0711,155.0392 L204.3871,155.0392 C202.7301,155.0392 201.3871,153.6962 201.3871,152.0392 L201.3871,122.1052 C201.3871,120.4482 202.7301,119.1052 204.3871,119.1052 L302.0711,119.1052 C303.7281,119.1052 305.0711,120.4482 305.0711,122.1052 L305.0711,152.0392 C305.0711,153.6962 303.7281,155.0392 302.0711,155.0392" id="Fill-44" fill="#1F8AEC" mask="url(#mask-2)"></path>
                        <path d="M204.3872,121.6054 C204.1112,121.6054 203.8872,121.8294 203.8872,122.1054 L203.8872,152.0394 C203.8872,152.3144 204.1112,152.5394 204.3872,152.5394 L302.0712,152.5394 C302.3472,152.5394 302.5712,152.3144 302.5712,152.0394 L302.5712,122.1054 C302.5712,121.8294 302.3472,121.6054 302.0712,121.6054 L204.3872,121.6054 Z M302.0712,157.5394 L204.3872,157.5394 C201.3542,157.5394 198.8872,155.0714 198.8872,152.0394 L198.8872,122.1054 C198.8872,119.0724 201.3542,116.6054 204.3872,116.6054 L302.0712,116.6054 C305.1042,116.6054 307.5712,119.0724 307.5712,122.1054 L307.5712,152.0394 C307.5712,155.0714 305.1042,157.5394 302.0712,157.5394 L302.0712,157.5394 Z" id="Fill-45" fill="#0E3250" mask="url(#mask-2)"></path>
                        <polygon id="Fill-46" fill="#FFFFFF" mask="url(#mask-2)" points="275.389 155.039 291.186 155.039 291.186 119.105 275.389 119.105"></polygon>
                        <path d="M277.889,152.539 L288.686,152.539 L288.686,121.605 L277.889,121.605 L277.889,152.539 Z M291.187,157.539 L275.389,157.539 C274.008,157.539 272.889,156.42 272.889,155.039 L272.889,119.105 C272.889,117.725 274.008,116.605 275.389,116.605 L291.187,116.605 C292.567,116.605 293.687,117.725 293.687,119.105 L293.687,155.039 C293.687,156.42 292.567,157.539 291.187,157.539 L291.187,157.539 Z" id="Fill-47" fill="#0E3250" mask="url(#mask-2)"></path>
                        <path d="M218.5907,137.0723 C218.5907,138.7383 217.2397,140.0893 215.5737,140.0893 C213.9077,140.0893 212.5577,138.7383 212.5577,137.0723 C212.5577,135.4063 213.9077,134.0553 215.5737,134.0553 C217.2397,134.0553 218.5907,135.4063 218.5907,137.0723" id="Fill-48" fill="#0E3250" mask="url(#mask-2)"></path>
                        <path d="M215.5742,136.5556 C215.2892,136.5556 215.0572,136.7876 215.0572,137.0726 C215.0572,137.3566 215.2892,137.5886 215.5742,137.5886 C215.8592,137.5886 216.0912,137.3566 216.0912,137.0726 C216.0912,136.7876 215.8592,136.5556 215.5742,136.5556 M215.5742,142.5886 C212.5322,142.5886 210.0572,140.1146 210.0572,137.0726 C210.0572,134.0306 212.5322,131.5556 215.5742,131.5556 C218.6162,131.5556 221.0912,134.0306 221.0912,137.0726 C221.0912,140.1146 218.6162,142.5886 215.5742,142.5886" id="Fill-49" fill="#0E3250" mask="url(#mask-2)"></path>
                        <path d="M236.304,137.0723 C236.304,138.7383 234.953,140.0893 233.287,140.0893 C231.621,140.0893 230.271,138.7383 230.271,137.0723 C230.271,135.4063 231.621,134.0553 233.287,134.0553 C234.953,134.0553 236.304,135.4063 236.304,137.0723" id="Fill-50" fill="#0E3250" mask="url(#mask-2)"></path>
                        <path d="M233.2871,136.5556 C233.0021,136.5556 232.7701,136.7876 232.7701,137.0726 C232.7701,137.3566 233.0021,137.5886 233.2871,137.5886 C233.5721,137.5886 233.8041,137.3566 233.8041,137.0726 C233.8041,136.7876 233.5721,136.5556 233.2871,136.5556 M233.2871,142.5886 C230.2451,142.5886 227.7701,140.1146 227.7701,137.0726 C227.7701,134.0306 230.2451,131.5556 233.2871,131.5556 C236.3291,131.5556 238.8041,134.0306 238.8041,137.0726 C238.8041,140.1146 236.3291,142.5886 233.2871,142.5886" id="Fill-51" fill="#0E3250" mask="url(#mask-2)"></path>
                        <path d="M249.0138,138.8184 C249.0348,138.4964 249.0628,138.1764 249.0628,137.8494 C249.0628,129.5074 242.3008,122.7454 233.9588,122.7454 C229.2308,122.7454 225.0138,124.9204 222.2448,128.3214 C220.5908,126.2914 218.4158,124.7104 215.9288,123.7564 C214.6068,114.4734 206.6468,107.3284 196.9988,107.3284 C195.9538,107.3284 194.9358,107.4344 193.9368,107.5954 C188.3128,98.8854 178.5278,93.1134 167.3878,93.1134 C149.9428,93.1134 135.8008,107.2564 135.8008,124.7014 C135.8008,129.7404 136.9868,134.4994 139.0848,138.7264 C131.8968,138.7644 126.0808,144.7164 126.0808,151.9124 C126.0808,159.1334 131.9338,165.1034 139.1548,165.1034 L247.4908,165.1034 C254.7108,165.1034 260.5638,159.1334 260.5638,151.9124 C260.5638,145.2084 255.5158,139.5744 249.0138,138.8184" id="Fill-52" fill="#FFFFFF" mask="url(#mask-2)"></path>
                        <path d="M167.3877,94.6137 C150.7977,94.6137 137.3007,108.1107 137.3007,124.7007 C137.3007,129.3847 138.3527,133.8787 140.4287,138.0587 C140.6587,138.5227 140.6327,139.0717 140.3617,139.5127 C140.0897,139.9537 139.6097,140.2227 139.0927,140.2257 C132.6377,140.2597 127.5807,145.2837 127.5807,151.6627 C127.5807,157.9707 132.7727,163.1027 139.1547,163.1027 L247.4907,163.1027 C253.8717,163.1027 259.0637,157.9707 259.0637,151.6627 C259.0637,145.8667 254.6687,140.9857 248.8407,140.3077 C248.0477,140.2167 247.4657,139.5197 247.5167,138.7227 L247.5317,138.5067 C247.5467,138.2887 247.5627,138.0707 247.5627,137.8487 C247.5627,130.3477 241.4597,124.2457 233.9587,124.2457 C229.8537,124.2457 226.0077,126.0767 223.4077,129.2687 C222.8387,129.9677 221.6507,129.9677 221.0817,129.2687 C219.5867,127.4327 217.6187,126.0107 215.3907,125.1567 C214.8827,124.9617 214.5197,124.5067 214.4437,123.9677 C213.2147,115.3367 205.7147,108.8277 196.9987,108.8277 C196.1357,108.8277 195.2127,108.9087 194.1757,109.0767 C193.5907,109.1687 192.9997,108.9097 192.6767,108.4087 C187.0987,99.7707 177.6447,94.6137 167.3877,94.6137 M247.4907,166.1027 L139.1547,166.1027 C131.1177,166.1027 124.5807,159.6247 124.5807,151.6627 C124.5807,144.4997 129.9017,138.5167 136.8347,137.4087 C135.1527,133.3837 134.3007,129.1187 134.3007,124.7007 C134.3007,106.4567 149.1437,91.6137 167.3877,91.6137 C178.3457,91.6137 188.4697,96.9657 194.6607,105.9777 C195.4847,105.8777 196.2567,105.8277 196.9987,105.8277 C206.9087,105.8277 215.4747,113.0187 217.2727,122.6897 C219.1257,123.5147 220.8127,124.6687 222.2427,126.0897 C225.3447,122.9917 229.5277,121.2457 233.9587,121.2457 C243.0147,121.2457 250.4017,128.5347 250.5597,137.5537 C257.2077,138.9677 262.0637,144.8077 262.0637,151.6627 C262.0637,159.6247 255.5267,166.1027 247.4907,166.1027" id="Fill-53" fill="#0E3250" mask="url(#mask-2)"></path>
                        <path d="M414.8033,60.9195 C414.8073,60.8545 414.8133,60.7905 414.8133,60.7245 C414.8133,59.0435 413.4503,57.6805 411.7693,57.6805 C410.8173,57.6805 409.9673,58.1195 409.4093,58.8045 C409.0763,58.3955 408.6373,58.0765 408.1363,57.8845 C407.8703,56.0135 406.2663,54.5745 404.3223,54.5745 C404.1113,54.5745 403.9063,54.5955 403.7053,54.6275 C402.5713,52.8725 400.6003,51.7095 398.3553,51.7095 C394.8403,51.7095 391.9903,54.5595 391.9903,58.0745 C391.9903,59.0905 392.2293,60.0495 392.6523,60.9005 C391.2033,60.9085 390.0313,62.5515 390.0313,64.0015 C390.0313,65.4565 391.2113,67.1035 392.6663,67.1035 L414.4963,67.1035 C415.9513,67.1035 417.1303,65.4565 417.1303,64.0015 C417.1303,62.6505 416.1133,61.0715 414.8033,60.9195" id="Fill-54" fill="#FFFFFF" mask="url(#mask-2)"></path>
                        <path d="M398.355,53.2099 C395.672,53.2099 393.49,55.3919 393.49,58.0749 C393.49,58.8329 393.66,59.5589 393.995,60.2339 C394.226,60.6969 394.201,61.2469 393.929,61.6879 C393.657,62.1279 393.178,62.3979 392.66,62.4009 C392.09,62.4039 391.532,63.0729 391.532,63.7519 C391.532,64.4339 392.094,65.1029 392.666,65.1029 L414.497,65.1029 C415.069,65.1029 415.631,64.4339 415.631,63.7519 C415.631,63.1219 415.145,62.4689 414.63,62.4089 C413.835,62.3169 413.252,61.6169 413.307,60.8179 C413.307,60.8169 413.309,60.7859 413.309,60.7839 C413.313,59.8729 412.621,59.1809 411.77,59.1809 C411.304,59.1809 410.868,59.3889 410.572,59.7519 C410.287,60.1009 409.86,60.3039 409.409,60.3039 L409.409,60.3039 C408.958,60.3039 408.531,60.1009 408.246,59.7509 C408.077,59.5429 407.853,59.3819 407.599,59.2849 C407.091,59.0899 406.728,58.6349 406.651,58.0959 C406.487,56.9429 405.486,56.0739 404.322,56.0739 C404.193,56.0739 404.068,56.0879 403.946,56.1079 C403.358,56.2049 402.769,55.9429 402.445,55.4409 C401.543,54.0439 400.014,53.2099 398.355,53.2099 M414.497,68.1029 L392.666,68.1029 C390.425,68.1029 388.532,66.1099 388.532,63.7519 C388.532,62.1349 389.426,60.6859 390.711,59.9379 C390.564,59.3329 390.49,58.7099 390.49,58.0749 C390.49,53.7379 394.019,50.2099 398.355,50.2099 C400.73,50.2099 402.939,51.2669 404.426,53.0749 C406.738,53.1209 408.75,54.6699 409.43,56.8289 C410.127,56.4089 410.932,56.1809 411.77,56.1809 C413.96,56.1809 415.794,57.7399 416.22,59.8059 C417.625,60.5129 418.631,62.0679 418.631,63.7519 C418.631,66.1099 416.738,68.1029 414.497,68.1029" id="Fill-55" fill="#E0E0E0" mask="url(#mask-2)"></path>
                        <path d="M351.4917,7.446 C351.4947,7.404 351.4977,7.362 351.4977,7.32 C351.4977,6.235 350.6187,5.355 349.5337,5.355 C348.9187,5.355 348.3697,5.638 348.0097,6.081 C347.7947,5.816 347.5117,5.611 347.1877,5.487 C347.0157,4.279 345.9807,3.35 344.7257,3.35 C344.5897,3.35 344.4567,3.363 344.3267,3.384 C343.5957,2.251 342.3227,1.5 340.8737,1.5 C338.6037,1.5 336.7647,3.34 336.7647,5.61 C336.7647,6.265 336.9187,6.884 337.1917,7.434 C336.2567,7.439 335.4997,8.832 335.4997,9.768 C335.4997,10.708 336.2617,12.103 337.2007,12.103 L351.2937,12.103 C352.2327,12.103 352.9947,10.708 352.9947,9.768 C352.9947,8.896 352.3377,7.544 351.4917,7.446" id="Fill-56" fill="#FFFFFF" mask="url(#mask-2)"></path>
                        <path d="M351.3177,9.1031 L351.3277,9.1031 L351.3177,9.1031 Z M337.2807,10.1031 L351.2137,10.1031 C351.3307,10.0091 351.4937,9.7251 351.4937,9.5181 C351.4937,9.3141 351.3387,9.0221 351.2277,8.9221 C350.4847,8.7901 349.9497,8.1211 349.9937,7.3581 C349.9947,7.3531 349.9967,7.3151 349.9977,7.3101 C349.9977,7.0631 349.7897,6.8551 349.5327,6.8551 C349.3417,6.8551 349.2247,6.9631 349.1727,7.0281 C348.8877,7.3771 348.4607,7.5801 348.0097,7.5801 L348.0087,7.5801 C347.5577,7.5801 347.1307,7.3771 346.8457,7.0271 C346.7957,6.9651 346.7277,6.9171 346.6507,6.8871 C346.1427,6.6921 345.7797,6.2371 345.7027,5.6991 C345.6267,5.1611 345.0877,4.7811 344.5667,4.8651 C343.9807,4.9571 343.3897,4.6991 343.0677,4.1981 C342.5827,3.4481 341.7627,3.0001 340.8737,3.0001 C339.4347,3.0001 338.2637,4.1711 338.2637,5.6091 C338.2637,6.0161 338.3557,6.4051 338.5347,6.7671 C338.7647,7.2311 338.7397,7.7801 338.4687,8.2211 C338.2117,8.6381 337.7677,8.9021 337.2827,8.9311 C337.1657,9.0231 336.9997,9.3091 336.9997,9.5181 C336.9997,9.7251 337.1637,10.0091 337.2807,10.1031 L337.2807,10.1031 Z M351.2937,13.1031 L337.2007,13.1031 C335.3687,13.1031 333.9997,11.2101 333.9997,9.5181 C333.9997,8.4621 334.5117,7.3281 335.3557,6.6241 C335.2947,6.2921 335.2637,5.9541 335.2637,5.6091 C335.2637,2.5171 337.7807,0.0001 340.8737,0.0001 C342.4857,0.0001 343.9917,0.6841 345.0477,1.8631 C346.4577,1.9781 347.6897,2.8451 348.3027,4.0801 C348.6897,3.9331 349.1057,3.8551 349.5327,3.8551 C351.1307,3.8551 352.4787,4.9411 352.8777,6.4131 C353.8777,7.0881 354.4937,8.3691 354.4937,9.5181 C354.4937,11.2101 353.1257,13.1031 351.2937,13.1031 L351.2937,13.1031 Z" id="Fill-57" fill="#E0E0E0" mask="url(#mask-2)"></path>
                        <path d="M498.1549,132.163 C498.1649,131.998 498.1799,131.835 498.1799,131.668 C498.1799,127.406 494.7249,123.951 490.4629,123.951 C488.0479,123.951 485.8929,125.063 484.4779,126.8 C483.6339,125.763 482.5219,124.955 481.2509,124.468 C480.5759,119.725 476.5089,116.074 471.5799,116.074 C471.0459,116.074 470.5259,116.129 470.0149,116.211 C467.1419,111.761 462.1429,108.812 456.4519,108.812 C447.5389,108.812 440.3129,116.037 440.3129,124.95 C440.3129,127.525 440.9189,129.956 441.9909,132.116 C438.3189,132.135 435.3469,135.432 435.3469,139.108 C435.3469,142.797 438.3379,146.103 442.0269,146.103 L497.3769,146.103 C501.0659,146.103 504.0559,142.797 504.0559,139.108 C504.0559,135.683 501.4769,132.549 498.1549,132.163" id="Fill-58" fill="#FFFFFF" mask="url(#mask-2)"></path>
                        <path d="M456.4512,110.312 C448.3802,110.312 441.8132,116.879 441.8132,124.95 C441.8132,127.229 442.3252,129.416 443.3342,131.449 C443.5652,131.912 443.5402,132.462 443.2682,132.903 C442.9962,133.343 442.5172,133.613 441.9992,133.616 C439.1582,133.631 436.8472,135.983 436.8472,138.858 C436.8472,141.75 439.1702,144.103 442.0262,144.103 L497.3772,144.103 C500.2332,144.103 502.5562,141.75 502.5562,138.858 C502.5562,136.238 500.5472,133.951 497.9812,133.653 C497.1882,133.561 496.6062,132.863 496.6582,132.065 C496.6582,132.063 496.6642,131.965 496.6652,131.963 C496.6722,131.865 496.6802,131.768 496.6802,131.668 C496.6802,128.24 493.8912,125.451 490.4632,125.451 C488.5872,125.451 486.8292,126.288 485.6412,127.747 C485.0722,128.447 483.8852,128.446 483.3152,127.748 C482.6322,126.909 481.7332,126.259 480.7142,125.868 C480.2062,125.673 479.8432,125.218 479.7662,124.679 C479.1892,120.629 475.6702,117.574 471.5792,117.574 C471.1772,117.574 470.7432,117.613 470.2542,117.692 C469.6672,117.785 469.0782,117.525 468.7552,117.024 C466.0412,112.821 461.4422,110.312 456.4512,110.312 M497.3772,147.103 L442.0262,147.103 C437.5162,147.103 433.8472,143.404 433.8472,138.858 C433.8472,135.082 436.3942,131.879 439.8482,130.914 C439.1602,129.009 438.8132,127.01 438.8132,124.95 C438.8132,115.225 446.7252,107.312 456.4512,107.312 C462.1472,107.312 467.4182,110.023 470.7372,114.61 C471.0272,114.586 471.3062,114.574 471.5792,114.574 C476.8672,114.574 481.4542,118.32 482.5842,123.416 C483.2642,123.753 483.9002,124.172 484.4752,124.662 C486.1312,123.242 488.2412,122.451 490.4632,122.451 C495.3002,122.451 499.2782,126.197 499.6512,130.939 C503.0962,131.936 505.5562,135.133 505.5562,138.858 C505.5562,143.404 501.8872,147.103 497.3772,147.103" id="Fill-59" fill="#E0E0E0" mask="url(#mask-2)"></path>
                        <path d="M17.4917,57.446 C17.4947,57.404 17.4977,57.362 17.4977,57.32 C17.4977,56.235 16.6187,55.355 15.5337,55.355 C14.9187,55.355 14.3697,55.638 14.0097,56.081 C13.7947,55.816 13.5117,55.611 13.1877,55.487 C13.0157,54.279 11.9807,53.35 10.7257,53.35 C10.5897,53.35 10.4567,53.363 10.3267,53.384 C9.5957,52.251 8.3227,51.5 6.8737,51.5 C4.6037,51.5 2.7647,53.34 2.7647,55.61 C2.7647,56.265 2.9187,56.884 3.1917,57.434 C2.2567,57.439 1.4997,58.832 1.4997,59.768 C1.4997,60.708 2.2617,62.103 3.2007,62.103 L17.2937,62.103 C18.2327,62.103 18.9947,60.708 18.9947,59.768 C18.9947,58.896 18.3377,57.544 17.4917,57.446" id="Fill-60" fill="#FFFFFF" mask="url(#mask-2)"></path>
                        <path d="M17.3177,59.1031 L17.3277,59.1031 L17.3177,59.1031 Z M3.2807,60.1031 L17.2137,60.1031 C17.3307,60.0091 17.4937,59.7251 17.4937,59.5181 C17.4937,59.3141 17.3387,59.0221 17.2277,58.9221 C16.4847,58.7901 15.9497,58.1211 15.9937,57.3581 C15.9947,57.3531 15.9967,57.3151 15.9977,57.3101 C15.9977,57.0631 15.7897,56.8551 15.5327,56.8551 C15.3417,56.8551 15.2247,56.9631 15.1727,57.0281 C14.8877,57.3771 14.4607,57.5801 14.0097,57.5801 L14.0087,57.5801 C13.5577,57.5801 13.1307,57.3771 12.8457,57.0271 C12.7957,56.9651 12.7277,56.9171 12.6507,56.8871 C12.1427,56.6921 11.7797,56.2371 11.7027,55.6991 C11.6267,55.1611 11.0857,54.7771 10.5667,54.8651 C9.9787,54.9591 9.3907,54.6991 9.0677,54.1981 C8.5827,53.4481 7.7627,53.0001 6.8737,53.0001 C5.4347,53.0001 4.2637,54.1711 4.2637,55.6091 C4.2637,56.0161 4.3557,56.4051 4.5347,56.7671 C4.7647,57.2311 4.7397,57.7801 4.4687,58.2211 C4.2117,58.6381 3.7677,58.9021 3.2827,58.9311 C3.1657,59.0231 2.9997,59.3091 2.9997,59.5181 C2.9997,59.7251 3.1637,60.0091 3.2807,60.1031 L3.2807,60.1031 Z M17.2937,63.1031 L3.2007,63.1031 C1.3687,63.1031 -0.0003,61.2101 -0.0003,59.5181 C-0.0003,58.4621 0.5117,57.3281 1.3557,56.6241 C1.2947,56.2921 1.2637,55.9541 1.2637,55.6091 C1.2637,52.5171 3.7807,50.0001 6.8737,50.0001 C8.4857,50.0001 9.9917,50.6841 11.0477,51.8631 C12.4577,51.9781 13.6897,52.8451 14.3027,54.0801 C14.6897,53.9331 15.1057,53.8551 15.5327,53.8551 C17.1307,53.8551 18.4787,54.9411 18.8777,56.4131 C19.8777,57.0881 20.4937,58.3691 20.4937,59.5181 C20.4937,61.2101 19.1257,63.1031 17.2937,63.1031 L17.2937,63.1031 Z" id="Fill-61" fill="#E0E0E0" mask="url(#mask-2)"></path>
                        <path d="M232.8033,197.9195 C232.8073,197.8545 232.8133,197.7905 232.8133,197.7245 C232.8133,196.0435 231.4503,194.6805 229.7693,194.6805 C228.8173,194.6805 227.9673,195.1195 227.4093,195.8045 C227.0763,195.3955 226.6373,195.0765 226.1363,194.8845 C225.8703,193.0135 224.2663,191.5745 222.3223,191.5745 C222.1113,191.5745 221.9063,191.5955 221.7053,191.6275 C220.5713,189.8725 218.6003,188.7095 216.3553,188.7095 C212.8403,188.7095 209.9903,191.5595 209.9903,195.0745 C209.9903,196.0905 210.2293,197.0495 210.6523,197.9005 C209.2033,197.9085 208.0313,199.5515 208.0313,201.0015 C208.0313,202.4565 209.2113,204.1035 210.6663,204.1035 L232.4963,204.1035 C233.9513,204.1035 235.1303,202.4565 235.1303,201.0015 C235.1303,199.6505 234.1133,198.0715 232.8033,197.9195" id="Fill-62" fill="#FFFFFF" mask="url(#mask-2)"></path>
                        <path d="M216.355,190.2099 C213.672,190.2099 211.49,192.3919 211.49,195.0749 C211.49,195.8329 211.66,196.5589 211.995,197.2339 C212.226,197.6969 212.201,198.2469 211.929,198.6879 C211.657,199.1279 211.178,199.3979 210.66,199.4009 C210.09,199.4039 209.532,200.0729 209.532,200.7519 C209.532,201.4339 210.094,202.1029 210.666,202.1029 L232.497,202.1029 C233.069,202.1029 233.631,201.4339 233.631,200.7519 C233.631,200.1219 233.145,199.4689 232.63,199.4089 C231.835,199.3169 231.252,198.6169 231.307,197.8179 C231.307,197.8169 231.309,197.7859 231.309,197.7839 C231.313,196.8729 230.621,196.1809 229.77,196.1809 C229.304,196.1809 228.868,196.3889 228.572,196.7519 C228.287,197.1009 227.86,197.3039 227.409,197.3039 L227.409,197.3039 C226.958,197.3039 226.531,197.1009 226.246,196.7509 C226.077,196.5429 225.853,196.3819 225.599,196.2849 C225.091,196.0899 224.728,195.6349 224.651,195.0959 C224.487,193.9429 223.486,193.0739 222.322,193.0739 C222.193,193.0739 222.068,193.0879 221.946,193.1079 C221.357,193.2059 220.768,192.9429 220.445,192.4409 C219.543,191.0439 218.014,190.2099 216.355,190.2099 M232.497,205.1029 L210.666,205.1029 C208.425,205.1029 206.532,203.1099 206.532,200.7519 C206.532,199.1349 207.426,197.6859 208.711,196.9379 C208.564,196.3329 208.49,195.7099 208.49,195.0749 C208.49,190.7379 212.019,187.2099 216.355,187.2099 C218.73,187.2099 220.939,188.2669 222.426,190.0749 C224.738,190.1209 226.75,191.6699 227.43,193.8289 C228.127,193.4089 228.932,193.1809 229.77,193.1809 C231.96,193.1809 233.794,194.7399 234.22,196.8059 C235.625,197.5129 236.631,199.0679 236.631,200.7519 C236.631,203.1099 234.738,205.1029 232.497,205.1029" id="Fill-63" fill="#E0E0E0" mask="url(#mask-2)"></path>
                    </g>
                </g>
            </g>
        </g>
    </g>
</svg>