<?xml version="1.0" encoding="utf-8"?>
<!-- Generator: Adobe Illustrator 15.1.0, SVG Export Plug-In . SVG Version: 6.00 Build 0)  -->
<!DOCTYPE svg PUBLIC "-//W3C//DTD SVG 1.1//EN" "http://www.w3.org/Graphics/SVG/1.1/DTD/svg11.dtd">
<svg version="1.1" xmlns="http://www.w3.org/2000/svg" xmlns:xlink="http://www.w3.org/1999/xlink" x="0px" y="0px" width="1000px"
	 height="560px" viewBox="0 0 1000 560" enable-background="new 0 0 1000 560" xml:space="preserve">
<g id="background" display="none">
	<rect y="-0.698" display="inline" fill="#A6CE39" width="1000" height="561.396"/>
</g>
<g id="Capa_1" display="none">
	<g display="inline">
		<g>
			<path fill="#414042" d="M689.632,484.23c0.228-1.677-0.055-3.514-0.978-5.426L581.202,347.683c11.221,0,20.34-9.103,20.34-20.333
				V44.957c0-11.212-9.119-20.32-20.34-20.32H144.077c-11.225,0-20.318,9.108-20.318,20.32V327.35
				c0,11.23,9.093,20.333,20.318,20.333H161.2L48.448,471.784c-3.196,3.702-2.15,8.662,1.062,12.76
				c-0.036-0.045-0.078-0.101-0.113-0.145c-0.544-0.831-2.585-2.822-2.362-3.962c-2.137,9.79-0.362,30.54,12.845,30.54h609.489
				C685.571,510.978,690.363,494.541,689.632,484.23z"/>
			<g>
				<path fill="#C9C9C9" d="M54.753,489.453c-1.487-0.807-3.42-2.403-4.971-4.562c1.951,2.394,4.645,4.412,7.665,5.751
					C56.465,490.277,55.536,489.889,54.753,489.453z"/>
				<polygon fill="#C9C9C9" points="624.997,419.332 575.593,419.332 546.318,419.332 538.828,406.081 566.772,406.081 
					613.968,406.081 				"/>
				<polygon fill="#C9C9C9" points="191.449,359.713 214.846,359.713 205.742,372.972 181.043,372.972 				"/>
				<polygon fill="#C9C9C9" points="189.084,357.775 164.803,357.775 170.309,351.676 193.962,351.676 				"/>
				<polygon fill="#C9C9C9" points="526.255,359.713 534.536,372.972 509.833,372.972 502.868,359.713 				"/>
				<polygon fill="#C9C9C9" points="515.008,351.676 538.665,351.676 542.925,357.775 518.639,357.775 				"/>
				<polygon fill="#C9C9C9" points="544.145,390.188 552.396,403.472 524.688,403.472 517.764,390.188 				"/>
				<polygon fill="#C9C9C9" points="497.978,388.135 491.985,374.884 516.88,374.884 524.157,388.135 				"/>
				<polygon fill="#C9C9C9" points="548.678,390.188 575.058,390.188 584.825,403.472 557.138,403.472 				"/>
				<polygon fill="#C9C9C9" points="528.666,388.135 521.14,374.884 546.021,374.884 554.855,388.135 				"/>
				<polygon fill="#C9C9C9" points="489.165,357.775 486.287,351.676 509.951,351.676 513.449,357.775 				"/>
				<polygon fill="#C9C9C9" points="498.842,359.713 505.611,372.972 480.902,372.972 475.474,359.713 				"/>
				<polygon fill="#C9C9C9" points="459.658,357.775 457.55,351.676 481.217,351.676 483.951,357.775 				"/>
				<polygon fill="#C9C9C9" points="470.443,359.713 475.615,372.972 450.921,372.972 447.069,359.713 				"/>
				<polygon fill="#C9C9C9" points="460.565,388.135 434.379,388.135 431.564,374.884 456.442,374.884 				"/>
				<polygon fill="#C9C9C9" points="430.174,357.775 428.835,351.676 452.498,351.676 454.479,357.775 				"/>
				<polygon fill="#C9C9C9" points="442.042,359.713 445.622,372.972 420.933,372.972 418.661,359.713 				"/>
				<polygon fill="#C9C9C9" points="428.782,388.135 402.583,388.135 401.362,374.884 426.257,374.884 				"/>
				<polygon fill="#C9C9C9" points="400.7,357.775 400.117,351.676 423.765,351.676 424.981,357.775 				"/>
				<polygon fill="#C9C9C9" points="413.656,359.713 415.657,372.972 390.958,372.972 390.268,359.713 				"/>
				<polygon fill="#C9C9C9" points="396.979,388.135 370.793,388.135 371.147,374.884 396.033,374.884 				"/>
				<polygon fill="#C9C9C9" points="371.211,357.775 371.381,351.676 395.062,351.676 395.504,357.775 				"/>
				<polygon fill="#C9C9C9" points="385.249,359.713 385.658,372.972 360.969,372.972 361.856,359.713 				"/>
				<polygon fill="#C9C9C9" points="365.801,374.884 365.195,388.135 338.99,388.135 340.934,374.884 				"/>
				<polygon fill="#C9C9C9" points="366.014,357.775 341.728,357.775 342.668,351.676 366.315,351.676 				"/>
				<polygon fill="#C9C9C9" points="356.849,359.713 355.679,372.972 330.971,372.972 333.477,359.713 				"/>
				<polygon fill="#C9C9C9" points="335.598,374.884 333.4,388.135 307.203,388.135 310.719,374.884 				"/>
				<polygon fill="#C9C9C9" points="336.52,357.775 312.237,357.775 313.931,351.676 337.584,351.676 				"/>
				<polygon fill="#C9C9C9" points="328.458,359.713 325.696,372.972 300.995,372.972 305.076,359.713 				"/>
				<polygon fill="#C9C9C9" points="305.4,374.884 301.601,388.135 275.397,388.135 280.512,374.884 				"/>
				<polygon fill="#C9C9C9" points="307.037,357.775 282.757,357.775 285.208,351.676 308.855,351.676 				"/>
				<polygon fill="#C9C9C9" points="300.042,359.713 295.706,372.972 271.02,372.972 276.655,359.713 				"/>
				<polygon fill="#C9C9C9" points="255.764,390.188 249.707,403.472 222.032,403.472 229.378,390.188 				"/>
				<polygon fill="#C9C9C9" points="211.807,388.135 220.096,374.884 244.963,374.884 237.996,388.135 				"/>
				<polygon fill="#C9C9C9" points="243.616,388.135 250.296,374.884 275.188,374.884 269.792,388.135 				"/>
				<polygon fill="#C9C9C9" points="277.553,357.775 253.281,357.775 256.472,351.676 280.152,351.676 				"/>
				<polygon fill="#C9C9C9" points="271.64,359.713 265.709,372.972 241.016,372.972 248.254,359.713 				"/>
				<polygon fill="#C9C9C9" points="248.072,357.775 223.791,357.775 227.768,351.676 251.419,351.676 				"/>
				<polygon fill="#C9C9C9" points="243.241,359.713 235.728,372.972 211.038,372.972 219.855,359.713 				"/>
				<polygon fill="#C9C9C9" points="218.589,357.775 194.3,357.775 199.052,351.676 222.691,351.676 				"/>
				<polygon fill="#C9C9C9" points="214.76,374.884 206.192,388.135 180.015,388.135 189.864,374.884 				"/>
				<polygon fill="#C9C9C9" points="223.702,390.188 216.083,403.472 188.396,403.472 197.317,390.188 				"/>
				<polygon fill="#C9C9C9" points="194.619,406.081 186.057,419.332 156.8,419.332 166.665,406.081 				"/>
				<polygon fill="#C9C9C9" points="200.592,406.081 228.566,406.081 221.575,419.332 192.329,419.332 				"/>
				<polygon fill="#C9C9C9" points="234.547,406.081 262.506,406.081 257.11,419.332 227.854,419.332 				"/>
				<polygon fill="#C9C9C9" points="255.653,403.472 261.418,390.188 287.806,390.188 283.346,403.472 				"/>
				<polygon fill="#C9C9C9" points="268.479,406.081 296.442,406.081 292.625,419.332 263.378,419.332 				"/>
				<polygon fill="#C9C9C9" points="289.27,403.472 293.446,390.188 319.839,390.188 316.971,403.472 				"/>
				<polygon fill="#C9C9C9" points="302.436,406.081 330.393,406.081 328.177,419.332 298.914,419.332 				"/>
				<polygon fill="#C9C9C9" points="322.915,403.472 325.486,390.188 351.886,390.188 350.606,403.472 				"/>
				<polygon fill="#C9C9C9" points="336.372,406.081 364.333,406.081 363.691,419.332 334.436,419.332 				"/>
				<polygon fill="#C9C9C9" points="356.532,403.472 357.537,390.188 383.936,390.188 384.251,403.472 				"/>
				<polygon fill="#C9C9C9" points="370.307,406.081 398.27,406.081 399.227,419.332 369.957,419.332 				"/>
				<polygon fill="#C9C9C9" points="390.165,403.472 389.581,390.188 415.972,390.188 417.854,403.472 				"/>
				<polygon fill="#C9C9C9" points="432.209,406.081 434.741,419.332 405.483,419.332 404.261,406.081 				"/>
				<polygon fill="#C9C9C9" points="423.809,403.472 421.613,390.188 448.026,390.188 451.489,403.472 				"/>
				<polygon fill="#C9C9C9" points="466.149,406.081 470.286,419.332 440.992,419.332 438.194,406.081 				"/>
				<polygon fill="#C9C9C9" points="457.422,403.472 453.673,390.188 480.064,390.188 485.125,403.472 				"/>
				<polygon fill="#C9C9C9" points="466.191,388.135 461.783,374.884 486.667,374.884 492.356,388.135 				"/>
				<polygon fill="#C9C9C9" points="512.109,390.188 518.749,403.472 491.046,403.472 485.717,390.188 				"/>
				<polygon fill="#C9C9C9" points="534.023,406.081 541.322,419.332 512.064,419.332 506.088,406.081 				"/>
				<polygon fill="#C9C9C9" points="594.653,382.836 599.031,388.135 611.802,403.472 590.441,403.472 578.866,388.135 
					561.492,388.135 552.341,374.884 588.009,374.884 				"/>
				<polygon fill="#C9C9C9" points="586.456,372.972 540.648,372.972 532.035,359.713 575.43,359.713 				"/>
				<polygon fill="#C9C9C9" points="543.737,351.676 567.381,351.676 572.413,357.775 548.134,357.775 				"/>
				<rect x="148.661" y="51.1" fill="#C9C9C9" width="427.96" height="270.118"/>
				<path fill="#F4F4F4" d="M149.063,69.923c0,0,147.145,150.648,427.558,169.333V51.1h-427.96L149.063,69.923z"/>
				<polygon fill="#C9C9C9" points="163.044,359.713 186.453,359.713 175.757,372.972 151.063,372.972 				"/>
				<polygon fill="#C9C9C9" points="149.359,374.884 185.057,374.884 174.936,388.135 137.372,388.135 				"/>
				<polygon fill="#C9C9C9" points="135.486,390.188 191.669,390.188 182.459,403.472 123.502,403.472 				"/>
				<polygon fill="#C9C9C9" points="121.137,406.081 161.24,406.081 151.114,419.332 109.144,419.332 				"/>
				<polygon fill="#C9C9C9" points="94.778,435.22 106.79,421.956 131.337,421.956 120.421,435.22 				"/>
				<polygon fill="#C9C9C9" points="126.186,435.22 136.847,421.956 161.399,421.956 151.826,435.22 				"/>
				<polygon fill="#C9C9C9" points="157.588,435.22 166.925,421.956 191.449,421.956 183.228,435.22 				"/>
				<polygon fill="#C9C9C9" points="188.993,435.22 196.984,421.956 221.515,421.956 214.623,435.22 				"/>
				<polygon fill="#C9C9C9" points="227.035,421.956 435.254,421.956 437.796,435.22 220.387,435.22 				"/>
				<polygon fill="#C9C9C9" points="257.065,483.865 273.433,439.458 459.399,439.458 473.434,483.865 				"/>
				<polygon fill="#C9C9C9" points="444.395,435.22 441.578,421.956 471.07,421.956 475.208,435.22 				"/>
				<polygon fill="#C9C9C9" points="472.146,406.081 500.076,406.081 505.789,419.332 476.541,419.332 				"/>
				<polygon fill="#C9C9C9" points="481.815,435.22 477.414,421.956 506.943,421.956 512.627,435.22 				"/>
				<polygon fill="#C9C9C9" points="518.26,435.365 515.538,429.301 549.042,429.301 552.423,435.365 				"/>
				<polygon fill="#C9C9C9" points="552.972,421.185 585.599,421.185 589.806,427.26 556.53,427.26 				"/>
				<polygon fill="#C9C9C9" points="561.259,435.365 557.718,429.301 591.22,429.301 595.437,435.365 				"/>
				<polygon fill="#C9C9C9" points="604.285,435.365 599.908,429.301 633.412,429.301 638.446,435.365 				"/>
			</g>
		</g>
		<g>
			<g>
				<polygon fill="#6D6E71" points="322.582,246.791 302.258,223.427 413.663,126.493 433.994,149.857 				"/>
				<g>
					<path fill="#808285" d="M485.614,113.788l-29.371,25.549l-29.082-33.426l29.37-25.552c-11.954-3.032-25.151-0.354-35.165,8.355
						c-16.219,14.113-17.927,38.703-3.814,54.927c14.118,16.219,38.703,17.927,54.927,3.814
						C482.487,138.747,486.965,126.043,485.614,113.788z"/>
					<path fill="#808285" d="M250.367,259.735l29.374-25.556l29.081,33.428L279.45,293.16c11.955,3.038,25.155,0.357,35.163-8.35
						c16.22-14.115,17.932-38.706,3.818-54.93c-14.114-16.222-38.705-17.929-54.929-3.814
						C253.495,234.775,249.017,247.478,250.367,259.735z"/>
				</g>
				<g>
					<path fill="#58595B" d="M317.421,220.564c-1.078,0.938-2.712,0.824-3.651-0.251l0,0c-0.937-1.081-0.823-2.715,0.254-3.655
						l91.316-79.447c1.078-0.939,2.71-0.824,3.654,0.254l0,0c0.936,1.078,0.821,2.712-0.258,3.65L317.421,220.564z"/>
					<path fill="#58595B" d="M321.919,225.734c-1.074,0.94-2.712,0.824-3.655-0.252l0,0c-0.937-1.081-0.82-2.716,0.255-3.654
						l91.313-79.449c1.083-0.938,2.718-0.824,3.658,0.253l0,0c0.936,1.076,0.822,2.716-0.256,3.654L321.919,225.734z"/>
					<path fill="#58595B" d="M326.418,230.904c-1.082,0.938-2.715,0.824-3.654-0.252l0,0c-0.94-1.082-0.823-2.716,0.254-3.655
						l91.316-79.449c1.078-0.938,2.716-0.825,3.648,0.254l0,0c0.94,1.076,0.83,2.716-0.248,3.653L326.418,230.904z"/>
					<path fill="#58595B" d="M330.915,236.073c-1.082,0.938-2.716,0.824-3.652-0.255l0,0c-0.94-1.078-0.825-2.715,0.255-3.65
						l91.311-79.451c1.082-0.942,2.712-0.826,3.651,0.251l0,0c0.94,1.078,0.827,2.716-0.254,3.654L330.915,236.073z"/>
				</g>
				<path fill="#939598" d="M452.217,145.407c-1.724,1.501-4.343,1.319-5.847-0.408l-27.017-31.048
					c-1.504-1.729-1.315-4.345,0.405-5.847l0,0c1.733-1.507,4.349-1.324,5.849,0.408l27.011,31.047
					C454.127,141.285,453.945,143.902,452.217,145.407L452.217,145.407z"/>
				<path fill="#939598" d="M315.726,264.164c-1.727,1.502-4.347,1.319-5.847-0.407l-27.017-31.049
					c-1.499-1.729-1.321-4.344,0.405-5.847l0,0c1.723-1.5,4.341-1.317,5.846,0.408l27.013,31.048
					C317.629,260.045,317.452,262.663,315.726,264.164L315.726,264.164z"/>
			</g>
			<g>
				<polygon fill="#6D6E71" points="264.035,93.961 261.535,97.065 255.111,105.042 252.607,108.148 269.814,122.005 
					290.895,133.862 383.94,208.802 390.364,200.826 297.321,125.888 281.241,107.819 				"/>
				<g>
					<path fill="#FEC00F" d="M408.837,187.65c-4.973-4.005-12.25-3.22-16.255,1.754l-19.333,24.001
						c-4.002,4.972-3.219,12.251,1.755,16.256l70.22,56.561c4.978,4.004,12.252,3.223,16.258-1.752l19.329-24.002
						c4.007-4.971,3.221-12.25-1.751-16.259L408.837,187.65z"/>
					<g>
						<path fill="#F9A01B" d="M378.451,216.494c-0.814-0.66-2.018-0.528-2.674,0.289l-3.187,3.951
							c-0.662,0.819-0.532,2.021,0.288,2.678l78.912,63.557c0.814,0.658,2.015,0.526,2.675-0.291l3.181-3.952
							c0.661-0.819,0.532-2.018-0.284-2.678L378.451,216.494z"/>
						<path fill="#F9A01B" d="M386.396,206.632c-0.821-0.657-2.02-0.532-2.676,0.289l-3.187,3.952
							c-0.66,0.818-0.529,2.02,0.288,2.674l78.91,63.56c0.818,0.657,2.017,0.525,2.675-0.29l3.185-3.953
							c0.662-0.819,0.527-2.018-0.288-2.676L386.396,206.632z"/>
						<path fill="#F9A01B" d="M394.338,196.769c-0.816-0.659-2.022-0.532-2.677,0.289l-3.183,3.951
							c-0.66,0.82-0.529,2.022,0.287,2.681l78.908,63.553c0.817,0.658,2.015,0.528,2.679-0.289l3.18-3.954
							c0.664-0.817,0.532-2.018-0.287-2.678L394.338,196.769z"/>
						<path fill="#F9A01B" d="M402.279,186.909c-0.814-0.662-2.018-0.532-2.676,0.287l-3.185,3.95
							c-0.655,0.82-0.527,2.022,0.29,2.681l78.907,63.551c0.819,0.658,2.016,0.532,2.681-0.289l3.177-3.951
							c0.663-0.821,0.534-2.021-0.285-2.679L402.279,186.909z"/>
					</g>
				</g>
			</g>
		</g>
		<g>
			<g>
				<path fill="#58595B" d="M858.44,364.968c-4.162,0-7.533-3.374-7.533-7.531v-22.063c0-10.089-8.206-18.292-18.293-18.292H716.49
					c-10.085,0-18.293,8.203-18.293,18.292v22.063c0,4.157-3.372,7.531-7.534,7.531c-4.158,0-7.533-3.374-7.533-7.531v-22.063
					c0-18.396,14.963-33.357,33.36-33.357h116.125c18.392,0,33.355,14.961,33.355,33.357v22.063
					C865.97,361.594,862.601,364.968,858.44,364.968z"/>
			</g>
			<g>
				<rect x="612.9" y="347.029" fill="#C5342B" width="323.3" height="180.786"/>
				<g>
					<path fill="#8C1F15" d="M645.959,412.854c0-6.245-5.059-11.301-11.296-11.301l0,0c-6.243,0-11.302,5.056-11.302,11.301v93.618
						c0,6.238,5.059,11.298,11.302,11.298l0,0c6.237,0,11.296-5.06,11.296-11.298V412.854z"/>
					<path fill="#8C1F15" d="M680.935,412.854c0-6.245-5.063-11.301-11.3-11.301l0,0c-6.243,0-11.3,5.056-11.3,11.301v93.618
						c0,6.238,5.057,11.298,11.3,11.298l0,0c6.237,0,11.3-5.06,11.3-11.298V412.854z"/>
					<path fill="#8C1F15" d="M715.906,412.854c0-6.245-5.056-11.301-11.296-11.301l0,0c-6.244,0-11.302,5.056-11.302,11.301v93.618
						c0,6.238,5.058,11.298,11.302,11.298l0,0c6.241,0,11.296-5.06,11.296-11.298V412.854z"/>
					<path fill="#8C1F15" d="M750.877,412.854c0-6.245-5.058-11.301-11.297-11.301l0,0c-6.237,0-11.297,5.056-11.297,11.301v93.618
						c0,6.238,5.061,11.298,11.297,11.298l0,0c6.239,0,11.297-5.06,11.297-11.298V412.854z"/>
					<path fill="#8C1F15" d="M785.853,412.854c0-6.245-5.062-11.301-11.302-11.301l0,0c-6.242,0-11.295,5.056-11.295,11.301v93.618
						c0,6.238,5.053,11.298,11.295,11.298l0,0c6.24,0,11.302-5.06,11.302-11.298V412.854z"/>
					<path fill="#8C1F15" d="M820.82,412.854c0-6.245-5.058-11.301-11.295-11.301l0,0c-6.239,0-11.3,5.056-11.3,11.301v93.618
						c0,6.238,5.061,11.298,11.3,11.298l0,0c6.237,0,11.295-5.06,11.295-11.298V412.854z"/>
					<path fill="#8C1F15" d="M855.798,412.854c0-6.245-5.061-11.301-11.3-11.301l0,0c-6.239,0-11.3,5.056-11.3,11.301v93.618
						c0,6.238,5.061,11.298,11.3,11.298l0,0c6.239,0,11.3-5.06,11.3-11.298V412.854z"/>
					<path fill="#8C1F15" d="M890.769,412.854c0-6.245-5.059-11.301-11.295-11.301l0,0c-6.244,0-11.301,5.056-11.301,11.301v93.618
						c0,6.238,5.057,11.298,11.301,11.298l0,0c6.236,0,11.295-5.06,11.295-11.298V412.854z"/>
					<path fill="#8C1F15" d="M925.741,412.854c0-6.245-5.057-11.301-11.3-11.301l0,0c-6.239,0-11.3,5.056-11.3,11.301v93.618
						c0,6.238,5.061,11.298,11.3,11.298l0,0c6.243,0,11.3-5.06,11.3-11.298V412.854z"/>
				</g>
			</g>
			<rect x="607.985" y="343.206" fill="#EF4136" width="333.131" height="76.876"/>
			<path fill="#FEC00F" d="M823.693,434.28c0,6.282-5.097,11.375-11.376,11.375h-75.533c-6.281,0-11.376-5.093-11.376-11.375
				v-25.284c0-6.279,5.095-11.374,11.376-11.374h75.533c6.279,0,11.376,5.095,11.376,11.374V434.28z"/>
			<path fill="#FFDD00" d="M818.757,409.488c0,4.386-3.551,7.934-7.938,7.934h-72.542c-4.38,0-7.938-3.548-7.938-7.934l0,0
				c0-4.378,3.558-7.935,7.938-7.935h72.542C815.206,401.554,818.757,405.11,818.757,409.488L818.757,409.488z"/>
			<path fill="#F15F4E" d="M934.267,357.031c0,4.524-3.674,8.191-8.192,8.191H623.027c-4.523,0-8.191-3.667-8.191-8.191l0,0
				c0-4.524,3.667-8.195,8.191-8.195h303.047C930.593,348.836,934.267,352.507,934.267,357.031L934.267,357.031z"/>
		</g>
		<g>
			<g>
				<path fill="#F0492D" d="M703.542,447.608h-11.028v-15.747h-98.14v104.685c0,8.132,6.588,14.723,14.72,14.723h68.694
					c8.131,0,14.725-6.591,14.725-14.723v-16.561h11.028c8.273,0,14.999-6.73,14.999-15v-42.377
					C718.541,454.336,711.815,447.608,703.542,447.608z M706.704,504.985c0,1.74-1.419,3.159-3.163,3.159h-11.028V459.45h11.028
					c1.743,0,3.163,1.414,3.163,3.158V504.985z"/>
				<g>
					<path fill="#E6E7E8" d="M620.961,400.563h5.207h1.231h5.211c4.569,0,8.282-3.711,8.282-8.278s-3.712-8.281-8.282-8.281H627.4
						v-0.022h-6.438c-1.866,0-3.376-1.509-3.376-3.368c0-1.861,1.51-3.377,3.376-3.377h6.438v-4.907h-6.438
						c-4.566,0-8.283,3.715-8.283,8.284c0,4.564,3.716,8.28,8.283,8.28h5.207v0.018h6.443c1.864,0,3.374,1.512,3.374,3.374
						c0,1.856-1.51,3.374-3.374,3.374H627.4h-1.231h-5.207c-4.566,0-8.283,3.713-8.283,8.277c0,4.568,3.716,8.281,8.283,8.281h5.207
						h1.231h5.211c1.864,0,3.374,1.514,3.374,3.376c0,1.859-1.51,3.368-3.374,3.368h-6.443v4.913h6.443
						c4.569,0,8.282-3.719,8.282-8.281c0-4.564-3.712-8.28-8.282-8.28H627.4h-1.231h-5.207c-1.866,0-3.376-1.515-3.376-3.377
						C617.585,402.078,619.095,400.563,620.961,400.563z"/>
					<path fill="#E6E7E8" d="M666.551,407.313h-5.214h-1.223h-5.219c-1.86,0-3.374-1.515-3.374-3.377
						c0-1.858,1.513-3.373,3.374-3.373h5.219h1.223h5.214c4.567,0,8.286-3.711,8.286-8.278s-3.719-8.281-8.286-8.281h-5.214v-0.022
						h-6.442c-1.86,0-3.374-1.509-3.374-3.368c0-1.861,1.513-3.377,3.374-3.377h6.442v-4.907h-6.442
						c-4.565,0-8.279,3.715-8.279,8.284c0,4.564,3.714,8.28,8.279,8.28h5.219v0.018h6.437c1.857,0,3.382,1.512,3.382,3.374
						c0,1.856-1.525,3.374-3.382,3.374h-5.214h-1.223h-5.219c-4.565,0-8.279,3.713-8.279,8.277c0,4.568,3.714,8.281,8.279,8.281
						h5.219h1.223h5.214c1.857,0,3.382,1.514,3.382,3.376c0,1.859-1.525,3.368-3.382,3.368h-6.437v4.913h6.437
						c4.567,0,8.286-3.719,8.286-8.281C674.837,411.029,671.118,407.313,666.551,407.313z"/>
				</g>
			</g>
			<g>
				<path fill="#F0492D" d="M588.133,452.306l8.92-17.625c1.131-2.219,0.213-4.944-2.039-6.088l-24.307-12.312
					c-2.254-1.146-4.992-0.267-6.118,1.948l-8.925,17.626L588.133,452.306z"/>
				<g>
					<g>
						<path fill="#E1A635" d="M574.311,464.471l-34.019,67.156c-0.08,0.291-0.134,0.575-0.158,0.846
							c-0.007,0.007-0.036,0.541-0.021,0.793c0.007,0.002,0,0.002,0,0.002c0.007,0.021,0.007,0.046,0.011,0.07
							c0.013,0.122,0.028,0.246,0.049,0.363c0.007,0.049,0.014,0.097,0.025,0.14c0.002,0.021,0.007,0.045,0.011,0.062l-0.003,0.003
							c0,0.006,0.003,0.016,0.007,0.021c0.018,0.083,0.077,0.294,0.08,0.316c0,0,0.086,0.242,0.09,0.261h0.006
							c0.015,0.037,0.157,0.374,0.204,0.459c0.017,0.041,0.042,0.085,0.067,0.122c0.031,0.07,0.074,0.143,0.117,0.206
							c0.024,0.045,0.048,0.083,0.075,0.124c0.045,0.065,0.592,0.771,0.673,0.855c0.015,0.009,0.024,0.021,0.034,0.031
							c0.077,0.074,0.146,0.144,0.222,0.218c0.025,0.026,0.198,0.185,0.259,0.231c0.018,0.019,0.06,0.053,0.071,0.063
							c0.139,0.113,0.706,0.533,0.805,0.599c0.017,0.015,0.031,0.02,0.045,0.032c0.096,0.057,8.817-15.786,0.627,0.378
							c-0.007,0.012,0.025,0.012,0.031,0.018c0.094,0.052,0.264,0.141,0.273,0.141c0,0,0.157,0.081,0.22,0.108l0,0
							c0.039,0.019,0.067,0.035,0.103,0.052c0.017,0.007,0.034,0.011,0.056,0.026c0.025,0.007,0.062,0.021,0.078,0.036
							c0.025,0.003,0.04,0.014,0.058,0.018c0.007,0.004,0.014,0.009,0.014,0.009c0.021,0.007,0.035,0.018,0.053,0.021
							c0.011,0.005,0.011,0.007,0.011,0.007c0.032,0.011,0.053,0.02,0.071,0.026l0.011,0.004v0.003c0.011,0,0.011,0,0.018,0.008
							c0.017,0.004,0.024,0.007,0.024,0.007l35.833-70.729L574.311,464.471z"/>
					</g>
				</g>
				<g>
					<g>
						<path fill="#FDB93B" d="M547.958,451.118l-35.834,70.732c0,0,0.012,0.015,0.029,0.025c0,0,0,0.004,0.007,0.012
							c0.014,0.021,1.203,0.996,1.292,1.044c0,0,0.113,0.075,0.134,0.087c0.125,0.074,0.248,0.148,0.378,0.215l0,0
							c0.043,0.021,0.079,0.044,0.117,0.065c0.018,0.004,0.408,0.188,0.434,0.195c0.062,0.03,0.283,0.113,0.321,0.13
							c0.047,0.017,0.278,0.091,0.348,0.108c0.05,0.021,0.292,0.083,0.366,0.099c0.048,0.012,0.099,0.025,0.158,0.032
							c0.068,0.014,0.143,0.029,0.213,0.041c0.053,0.01,0.319,0.041,0.398,0.046c0.053,0.003,0.329,0.022,0.407,0.028
							c0.06,0,0.116,0,0.172,0c0.086,0,0.369-0.017,0.427-0.028c0.099-0.005,0.191-0.013,0.294-0.033
							c0.041-0.008,0.084-0.012,0.129-0.013l0.012-0.005c0.223-0.041,0.447-0.091,0.678-0.163c0.024-0.007,0.048-0.007,0.075-0.017
							c0.014-0.005,0.027-0.011,0.045-0.015l0,0c0,0,0.017-0.003,0.024-0.007c0.182-0.059,0.359-0.13,0.539-0.204
							c0.014-0.007,0.029-0.011,0.047-0.018l0,0c0.037-0.015,0.074-0.036,0.109-0.059c0.189-0.082,0.381-0.173,0.564-0.28
							c0.032-0.015,0.056-0.024,0.092-0.045c0.206-0.123,0.417-0.26,0.635-0.41c0.045-0.037,0.096-0.074,0.152-0.111
							c0.217-0.162,0.437-0.33,0.659-0.525l34.022-67.153L547.958,451.118z"/>
					</g>
				</g>
				<g>
					<g>
						<path fill="#E1A635" d="M555.31,454.848l-34.021,67.15c0,0,0.014,0.019,0.029,0.041c0.007,0.007,0.014,0.018,0.021,0.027
							c0.013,0.028,0.031,0.054,0.053,0.089c0.014,0.021,0.032,0.052,0.045,0.074c0.026,0.032,0.048,0.065,0.072,0.102
							c0.029,0.047,0.053,0.085,0.089,0.136c0.018,0.027,0.036,0.053,0.053,0.075c0.036,0.055,0.074,0.104,0.117,0.169
							c0.067,0.091,0.146,0.201,0.23,0.316c0.017,0.027,0.043,0.052,0.057,0.076c0.039,0.053,0.074,0.101,0.118,0.155
							c0.017,0.027,0.038,0.056,0.063,0.081c0.04,0.052,0.084,0.104,0.121,0.157c0.051,0.064,0.102,0.135,0.156,0.205
							c0.063,0.072,0.123,0.149,0.187,0.23c0.036,0.032,0.061,0.073,0.094,0.11c0.013,0.011,0.024,0.025,0.031,0.04
							c0.099,0.122,0.213,0.244,0.312,0.372c0.029,0.026,0.05,0.058,0.082,0.091c0,0,0.015,0.015,0.021,0.022
							c0.1,0.113,0.202,0.229,0.306,0.344c0.06,0.07,0.124,0.139,0.19,0.213c0.143,0.147,0.285,0.306,0.434,0.451
							c0.007,0.012,0.015,0.019,0.017,0.029c0.153,0.148,0.302,0.307,0.458,0.454c0.043,0.048,0.096,0.086,0.134,0.131
							c0.153,0.144,0.305,0.287,0.465,0.435c0.074,0.065,0.153,0.14,0.23,0.203c0.153,0.139,0.305,0.274,0.472,0.411
							c0.043,0.04,0.089,0.08,0.146,0.125c0.035,0.037,0.077,0.067,0.12,0.096c0.06,0.055,0.127,0.111,0.195,0.164
							c0.054,0.051,0.351,0.276,0.375,0.302c0.007,0,0.012,0,0.012,0c0.021,0.025,0.042,0.034,0.056,0.049
							c0.116,0.081,0.227,0.169,0.343,0.252c0.093,0.062,0.466,0.333,0.566,0.402c0.037,0.024,0.069,0.052,0.101,0.073l0.025,0.009
							c0.046,0.036,0.099,0.065,0.147,0.106c0.064,0.041,0.133,0.089,0.2,0.129c0.266,0.177,0.539,0.343,0.818,0.504
							c0.068,0.037,0.135,0.072,0.199,0.11c0.217,0.125,0.441,0.247,0.667,0.361c0.041,0.025,0.075,0.039,0.115,0.059l0.028,0.017
							c0.157,0.077,0.315,0.155,0.471,0.232c0.007,0.006,0.026,0.011,0.036,0.015c0.018,0.007,0.029,0.015,0.04,0.024
							c0.138,0.061,0.279,0.117,0.422,0.178l0,0c0.047,0.021,0.092,0.034,0.135,0.048l35.428-69.935L555.31,454.848z"/>
					</g>
				</g>
				<g>
					<g>
						<path fill="#FDB93B" d="M566.574,460.553l-35.538,69.878l-0.011,0.016c0.128,0.059,0.266,0.119,0.394,0.174
							c0.187,0.071,0.382,0.147,0.574,0.221c0.425,0.153,0.869,0.293,1.323,0.419c0.203,0.053,0.4,0.104,0.606,0.151
							c0.241,0.057,0.495,0.106,0.749,0.15l-0.007,0.003c0.031,0.007,0.059,0.007,0.089,0.012c0.024,0.009,0.053,0.01,0.084,0.017
							c0.209,0.037,0.419,0.072,0.635,0.099c0.851,0.11,1.737,0.159,2.655,0.123c0.228-0.007,0.467-0.021,0.7-0.038
							c0.472-0.039,0.943-0.095,1.426-0.17l34.021-67.155L566.574,460.553z"/>
					</g>
				</g>
				
					<rect x="550.448" y="440.691" transform="matrix(0.8921 0.4518 -0.4518 0.8921 264.9239 -208.3148)" fill="#939598" width="36.375" height="19.708"/>
				<g>
					<polygon fill="#E6E7E8" points="582.987,462.472 550.532,446.028 549.096,448.867 581.543,465.306 					"/>
					<polygon fill="#E6E7E8" points="585.625,457.25 553.18,440.807 551.74,443.646 584.187,460.084 					"/>
					<polygon fill="#E6E7E8" points="588.271,452.026 555.822,435.591 554.383,438.43 586.837,454.866 					"/>
				</g>
				<g>
					<g>
						<path fill="#DDC49E" d="M544.686,538.344c-11.555-25.38-32.526-16.475-32.526-16.475l0.345,4.524l0,0l0.094,1.236l0,0
							l0.507,6.619l0,0l0.105,1.334l0,0l0.24,3.117l0,0l0.005,0.114c-0.002-0.019-0.002-0.035-0.002-0.058l0.079,0.992l1.145,14.927
							l12.9-7.022l-0.014,0.01l1.496-0.814c-0.017,0.014-0.042,0.025-0.063,0.029l0.295-0.151l0,0l0.783-0.43l0,0l1.079-0.586l0,0
							l8.774-4.773l0,0l0.99-0.538l0,0L544.686,538.344z"/>
					</g>
				</g>
				<g>
					<g>
						<path fill="#414042" d="M529.292,546.727L529.292,546.727l-1.886-0.961l-0.55-0.274l-0.948-0.483l-2.878-1.46l-0.584-0.293
							l-2.856-1.443l-0.587-0.293l-2.329-1.18l-0.543-0.28l-0.947-0.483l-0.542-0.276l-1.191-0.599c0.002,0.018,0,0.038,0.002,0.057
							c0.054,0.647,0.074,0.933,0.125,1.603v0.007l0.649,13.783c0.077,0.235,0.244,0.419,0.45,0.526l0,0l0.007,0.003
							c0.212,0.106,0.467,0.141,0.707,0.059l12.172-7.074l0.338-0.197c0.411-0.215,0.881-0.471,1.158-0.617
							C529.207,546.774,529.292,546.727,529.292,546.727"/>
					</g>
				</g>
			</g>
		</g>
	</g>
</g>
<g id="Layer_2">
	<g>
		<g>
			<polygon fill-rule="evenodd" clip-rule="evenodd" fill="#BFE5E8" points="337.887,331.776 334.814,333.909 292.168,272.51 
				295.238,270.375 337.887,331.776 			"/>
			<polygon fill-rule="evenodd" clip-rule="evenodd" fill="#BFE5E8" points="292.306,270.201 295.101,272.683 195.802,384.465 
				193.009,381.982 292.306,270.201 			"/>
			<polygon fill-rule="evenodd" clip-rule="evenodd" fill="#BFE5E8" points="427.531,132.525 430.927,134.082 338.05,333.619 
				334.653,332.063 427.531,132.525 			"/>
			<polygon fill-rule="evenodd" clip-rule="evenodd" fill="#BFE5E8" points="488.969,249.598 484.506,248.775 426.255,139.466 
				430.715,140.285 488.969,249.598 			"/>
			<polygon fill-rule="evenodd" clip-rule="evenodd" fill="#BFE5E8" points="490.709,260.318 489.219,256.827 578.76,111.352 
				580.251,114.841 490.709,260.318 			"/>
			<path fill-rule="evenodd" clip-rule="evenodd" fill="#BFE5E8" d="M293.703,259.273c6.721,0,12.169,5.449,12.169,12.168
				c0,6.722-5.449,12.17-12.169,12.17c-6.719,0-12.168-5.448-12.168-12.17C281.535,264.723,286.984,259.273,293.703,259.273
				L293.703,259.273z"/>
			<path fill-rule="evenodd" clip-rule="evenodd" fill="#BFE5E8" d="M336.031,316.937c6.719,0,12.167,5.445,12.167,12.166
				c0,6.72-5.448,12.167-12.167,12.167c-6.721,0-12.168-5.447-12.168-12.167C323.862,322.382,329.31,316.937,336.031,316.937
				L336.031,316.937z"/>
			<path fill-rule="evenodd" clip-rule="evenodd" fill="#BFE5E8" d="M429.095,125.851c6.721,0,12.168,5.45,12.168,12.17
				c0,6.719-5.447,12.167-12.168,12.167c-6.718,0-12.167-5.448-12.167-12.167C416.928,131.3,422.376,125.851,429.095,125.851
				L429.095,125.851z"/>
			<path fill-rule="evenodd" clip-rule="evenodd" fill="#BFE5E8" d="M488.969,247.104c6.72,0,12.167,5.447,12.167,12.169
				c0,6.719-5.447,12.168-12.167,12.168c-6.72,0-12.167-5.449-12.167-12.168C476.802,252.552,482.249,247.104,488.969,247.104
				L488.969,247.104z"/>
			<path fill-rule="evenodd" clip-rule="evenodd" fill="#BFE5E8" d="M578.6,104.897c6.722,0,12.169,5.448,12.169,12.169
				c0,6.719-5.447,12.166-12.169,12.166c-6.718,0-12.168-5.447-12.168-12.166C566.432,110.346,571.881,104.897,578.6,104.897
				L578.6,104.897z"/>
			<path fill-rule="evenodd" clip-rule="evenodd" fill="#BFE5E8" d="M193.009,369.812c6.717,0,12.165,5.448,12.165,12.17
				c0,6.716-5.448,12.166-12.165,12.166c-6.721,0-12.17-5.45-12.17-12.166C180.839,375.261,186.288,369.812,193.009,369.812
				L193.009,369.812z"/>
		</g>
		<g>
			<polygon fill-rule="evenodd" clip-rule="evenodd" fill="#00AEEF" points="240.803,221.717 237.802,223.798 196.151,163.833 
				199.15,161.748 240.803,221.717 			"/>
			<polygon fill-rule="evenodd" clip-rule="evenodd" fill="#00AEEF" points="196.286,161.578 199.016,164.001 102.034,273.175 
				99.307,270.748 196.286,161.578 			"/>
			<polygon fill-rule="evenodd" clip-rule="evenodd" fill="#00AEEF" points="328.354,27.117 331.671,28.637 240.962,223.518 
				237.645,221.996 328.354,27.117 			"/>
			<polygon fill-rule="evenodd" clip-rule="evenodd" fill="#00AEEF" points="388.356,141.455 383.999,140.652 327.107,33.896 
				331.463,34.696 388.356,141.455 			"/>
			<polygon fill-rule="evenodd" clip-rule="evenodd" fill="#00AEEF" points="390.057,151.927 388.602,148.516 476.052,6.438 
				477.507,9.846 390.057,151.927 			"/>
			<path fill-rule="evenodd" clip-rule="evenodd" fill="#00AEEF" d="M197.649,150.905c6.564,0,11.886,5.323,11.886,11.884
				c0,6.565-5.321,11.886-11.886,11.886c-6.561,0-11.883-5.32-11.883-11.886C185.767,156.228,191.088,150.905,197.649,150.905
				L197.649,150.905z"/>
			<path fill-rule="evenodd" clip-rule="evenodd" fill="#00AEEF" d="M238.989,207.224c6.563,0,11.883,5.316,11.883,11.881
				s-5.32,11.884-11.883,11.884c-6.563,0-11.884-5.319-11.884-11.884S232.426,207.224,238.989,207.224L238.989,207.224z"/>
			<path fill-rule="evenodd" clip-rule="evenodd" fill="#00AEEF" d="M329.881,20.599c6.563,0,11.884,5.322,11.884,11.885
				c0,6.562-5.321,11.883-11.884,11.883c-6.561,0-11.883-5.321-11.883-11.883C317.998,25.921,323.32,20.599,329.881,20.599
				L329.881,20.599z"/>
			<path fill-rule="evenodd" clip-rule="evenodd" fill="#00AEEF" d="M388.356,139.021c6.564,0,11.883,5.321,11.883,11.885
				s-5.319,11.884-11.883,11.884c-6.562,0-11.882-5.32-11.882-11.884S381.795,139.021,388.356,139.021L388.356,139.021z"/>
			<path fill-rule="evenodd" clip-rule="evenodd" fill="#00AEEF" d="M475.895,0.134c6.565,0,11.886,5.32,11.886,11.885
				c0,6.562-5.32,11.882-11.886,11.882c-6.561,0-11.882-5.32-11.882-11.882C464.012,5.455,469.333,0.134,475.895,0.134
				L475.895,0.134z"/>
			<path fill-rule="evenodd" clip-rule="evenodd" fill="#00AEEF" d="M99.307,258.864c6.562,0,11.882,5.323,11.882,11.884
				c0,6.56-5.32,11.883-11.882,11.883c-6.563,0-11.886-5.323-11.886-11.883C87.421,264.188,92.744,258.864,99.307,258.864
				L99.307,258.864z"/>
		</g>
		<polygon fill-rule="evenodd" clip-rule="evenodd" fill="#FFFFFF" points="221.229,148.782 245.399,148.782 245.399,234.998 
			221.229,234.998 221.229,148.782 		"/>
		<polygon fill-rule="evenodd" clip-rule="evenodd" fill="#47A5AE" points="221.229,170.337 245.399,170.337 245.399,234.998 
			221.229,234.998 221.229,170.337 		"/>
		<polygon fill-rule="evenodd" clip-rule="evenodd" fill="#F7941E" points="360.597,86.877 384.766,86.877 384.766,235.183 
			360.597,235.183 360.597,86.877 		"/>
		<polygon fill-rule="evenodd" clip-rule="evenodd" fill="#47A5AE" points="360.597,133.223 384.766,133.223 384.766,235.183 
			360.597,235.183 360.597,133.223 		"/>
		<polygon fill-rule="evenodd" clip-rule="evenodd" fill="#FFFFFF" points="262.571,155.258 286.739,155.258 286.739,234.882 
			262.571,234.882 262.571,155.258 		"/>
		<polygon fill-rule="evenodd" clip-rule="evenodd" fill="#47A5AE" points="262.571,180.14 286.739,180.14 286.739,234.882 
			262.571,234.882 262.571,180.14 		"/>
		<polygon fill-rule="evenodd" clip-rule="evenodd" fill="#FFFFFF" points="294.796,104.045 318.965,104.045 318.965,234.882 
			294.796,234.882 294.796,104.045 		"/>
		<polygon fill-rule="evenodd" clip-rule="evenodd" fill="#47A5AE" points="294.796,131.918 318.965,131.918 318.965,234.882 
			294.796,234.882 294.796,131.918 		"/>
		<polygon fill-rule="evenodd" clip-rule="evenodd" fill="#FFFFFF" points="327.021,129.684 351.189,129.684 351.189,234.882 
			327.021,234.882 327.021,129.684 		"/>
		<polygon fill-rule="evenodd" clip-rule="evenodd" fill="#47A5AE" points="327.021,153.313 351.189,153.313 351.189,234.882 
			327.021,234.882 327.021,153.313 		"/>
	</g>
	<g>
		<path fill-rule="evenodd" clip-rule="evenodd" fill="#48A9DF" d="M873.042,183.574c10.351-20.418,2.124-45.314-18.291-55.632
			c-20.463-10.261-45.458-1.999-55.809,18.346c-10.312,20.344-2.125,45.299,18.282,55.677
			C837.733,212.274,862.674,204.092,873.042,183.574L873.042,183.574z M797.413,223.566l0.246-0.113l3.588-13.473l-9.949-9.861
			l-13.463,3.688l-0.081,0.259c-3.043-4.55-5.499-9.44-7.418-14.471l0.207,0.15l10.821-8.874l-2.225-13.767l-13.098-4.956
			l-0.154,0.169c0.166-5.16,0.944-10.377,2.36-15.538l0.102,0.232l13.959-0.845l6.204-12.442l-7.697-11.586l-0.292,0.023
			c3.431-4.378,7.226-8.236,11.404-11.575l0.016,0.224l11.778,7.451l12.364-6.426l0.609-13.875l-0.193-0.139
			c5.164-1.483,10.529-2.415,15.992-2.667l-0.155,0.169l5.121,12.94l13.776,2.024l8.75-10.845l-0.104-0.258
			c2.605,0.944,5.218,2.014,7.831,3.382c2.312,1.162,4.55,2.42,6.683,3.794l-0.217,0.087l-3.537,13.479l9.965,9.679l13.482-3.619
			l0.061-0.314c3.031,4.524,5.55,9.34,7.5,14.369l-0.258-0.05l-10.795,8.79l2.289,13.785l13.049,4.862l0.243-0.132
			c-0.188,5.358-0.937,10.756-2.431,16.05l-0.156-0.199l-13.92,0.773l-6.242,12.511l7.62,11.691l0.306-0.023
			c-3.366,4.3-7.252,8.251-11.414,11.604l0.021-0.227l-11.775-7.635l-12.445,6.459l-0.609,14.062l0.205,0.098
			c-5.207,1.481-10.564,2.357-15.994,2.649l0.139-0.236l-5.103-13.029l-13.76-2.135l-8.751,10.969l0.043,0.21
			c-2.509-0.955-5.053-2.001-7.576-3.334C801.938,226.371,799.632,224.979,797.413,223.566L797.413,223.566z"/>
		<path fill-rule="evenodd" clip-rule="evenodd" fill="#48A9DF" d="M812.427,166.842c1.039,13.046,12.443,22.79,25.475,21.751
			c13.043-1.04,22.796-12.469,21.756-25.513c-1.034-12.989-12.469-22.661-25.512-21.622
			C821.114,142.497,811.392,153.854,812.427,166.842L812.427,166.842z"/>
		<path fill-rule="evenodd" clip-rule="evenodd" fill="#48A9DF" d="M751.746,217.982c-19.198,1.247-33.752,17.825-32.505,37.024
			c1.239,19.204,17.826,33.757,37.021,32.515c19.205-1.246,33.764-17.819,32.515-37.028
			C787.53,231.288,770.958,216.734,751.746,217.982L751.746,217.982z M794.558,276.889l6.137,5.39l-11.369,12.947l-6.141-5.388
			c-5.086,4.011-11.042,7.002-17.58,8.653l0.532,8.15l-17.19,1.114l-0.528-8.147c-6.684-0.792-12.978-2.985-18.549-6.306
			l-5.392,6.13l-12.945-11.364l5.386-6.135c-4.009-5.095-6.999-11.05-8.645-17.58l-8.156,0.527l-1.112-17.189l8.155-0.53
			c0.785-6.692,2.979-12.981,6.297-18.548l-6.135-5.395l11.363-12.938l6.147,5.378c5.093-4.01,11.049-6.998,17.574-8.646
			l-0.526-8.149l17.185-1.119l0.532,8.152c6.689,0.79,12.974,2.983,18.553,6.305l5.386-6.139l12.942,11.375l-5.386,6.139
			c4.012,5.088,7,11.046,8.648,17.572l8.155-0.528l1.12,17.197l-8.157,0.527C800.067,265.033,797.878,271.318,794.558,276.889
			L794.558,276.889z"/>
		<path fill-rule="evenodd" clip-rule="evenodd" fill="#48A9DF" d="M676.434,210.516c2.771,0.969,5.654,1.369,8.559,1.185
			c8.648-0.565,16.095-6.212,18.965-14.384c3.951-11.225-1.966-23.577-13.196-27.522c-2.763-0.974-5.646-1.376-8.548-1.184
			c-8.656,0.562-16.096,6.205-18.977,14.382C659.297,194.217,665.214,206.562,676.434,210.516L676.434,210.516z M651.642,186.233
			l-5.277-1.85l4.595-13.042l5.261,1.859c2.01-3.25,4.542-6.076,7.548-8.42l-2.411-5.035l12.463-5.976l2.407,5.034
			c3.694-0.87,7.53-1.08,11.287-0.609l1.857-5.274l13.033,4.591l-1.849,5.267c3.243,2,6.077,4.536,8.416,7.548l5.032-2.416
			l5.977,12.463l-5.031,2.409c0.877,3.72,1.076,7.506,0.617,11.286l5.258,1.857l-4.579,13.039l-5.267-1.856
			c-2.009,3.248-4.539,6.071-7.544,8.415l2.415,5.033l-12.472,5.976l-2.415-5.026c-3.68,0.861-7.517,1.073-11.277,0.609
			l-1.859,5.267l-13.036-4.589l1.849-5.263c-3.24-2.007-6.066-4.537-8.414-7.549l-5.04,2.417l-5.969-12.461l5.038-2.416
			C651.368,193.804,651.169,190.021,651.642,186.233L651.642,186.233z"/>
		<path fill-rule="evenodd" clip-rule="evenodd" fill="#48A9DF" d="M614.959,184.885c-2.93-1.294-6.028-1.979-9.203-2.028
			c-9.453-0.136-18.039,5.359-21.867,13.995c-5.267,11.861,0.096,25.807,11.964,31.07c2.919,1.297,6.02,1.983,9.192,2.025
			c9.458,0.139,18.038-5.353,21.877-13.992C632.18,204.09,626.816,190.156,614.959,184.885L614.959,184.885z M639.812,213.434
			l5.577,2.47l-6.127,13.783l-5.558-2.478c-2.467,3.361-5.465,6.213-8.936,8.503l2.184,5.682l-14.069,5.417l-2.181-5.681
			c-4.091,0.625-8.28,0.522-12.325-0.316l-2.477,5.574l-13.772-6.121l2.466-5.567c-3.354-2.455-6.213-5.457-8.497-8.935
			l-5.681,2.191L565,213.887l5.679-2.185c-0.632-4.121-0.52-8.253,0.307-12.325l-5.556-2.475l6.106-13.779l5.567,2.475
			c2.467-3.359,5.462-6.209,8.932-8.499l-2.19-5.681l14.079-5.415l2.191,5.674c4.074-0.618,8.264-0.517,12.314,0.315l2.477-5.567
			l13.776,6.119l-2.467,5.562c3.35,2.46,6.204,5.458,8.496,8.937l5.689-2.191l5.411,14.066l-5.688,2.191
			C640.765,205.227,640.653,209.357,639.812,213.434L639.812,213.434z"/>
	</g>
	<g>
		<path fill="#A7A9AC" d="M539.958,469.213h-46.415h-46.42c0,0,8.472,42.238-29.469,46.606l75.889,0.003l75.889-0.003
			C531.489,511.451,539.958,469.213,539.958,469.213z"/>
		<rect x="410.164" y="515.822" fill="#FFFFFF" width="166.758" height="11.124"/>
		<path fill="#0C2F4F" d="M713.744,444.312c0,4.979-4.346,9.016-9.71,9.016H284.496c-5.36,0-9.707-4.036-9.707-9.016V201.213
			c0-4.979,4.347-9.016,9.707-9.016h419.538c5.364,0,9.71,4.038,9.71,9.016V444.312z"/>
		<rect x="284.496" y="202.514" fill="#00AEEF" width="418.093" height="227.166"/>
		<path fill="#FFFFFF" d="M274.789,440.893v21.547c0,5.173,4.347,9.369,9.707,9.369h419.538c5.364,0,9.71-4.196,9.71-9.369v-21.547
			H274.789z"/>
		<g opacity="0.6">
			<g>
				<path fill="#00AEEF" d="M680.36,457.388c-0.724,0-1.309-0.627-1.309-1.401v-7.003c0-0.774,0.585-1.4,1.309-1.4
					c0.722,0,1.308,0.626,1.308,1.4v7.003C681.668,456.761,681.083,457.388,680.36,457.388z"/>
			</g>
			<g>
				<path fill="#00AEEF" d="M680.36,463.646c-4.241,0-7.691-3.451-7.691-7.689c0-2.272,0.999-4.417,2.741-5.884
					c0.484-0.406,1.207-0.344,1.614,0.14c0.408,0.485,0.345,1.205-0.139,1.613c-1.224,1.029-1.925,2.535-1.925,4.131
					c0,2.976,2.421,5.398,5.399,5.398c2.977,0,5.4-2.423,5.4-5.398c0-1.596-0.702-3.103-1.925-4.131
					c-0.483-0.408-0.546-1.128-0.138-1.613c0.408-0.483,1.13-0.546,1.613-0.14c1.744,1.465,2.74,3.611,2.74,5.884
					C688.05,460.195,684.601,463.646,680.36,463.646z"/>
			</g>
		</g>
		<g>
			<path fill="#D1D3D4" d="M647.062,393.793c0,3.576-3.123,6.476-6.976,6.476H338.699c-3.851,0-6.973-2.899-6.973-6.476V219.155
				c0-3.575,3.122-6.476,6.973-6.476h301.387c3.854,0,6.976,2.9,6.976,6.476V393.793z"/>
			<g>
				<polygon fill-rule="evenodd" clip-rule="evenodd" fill="#58595B" points="361.124,232.485 361.124,233.794 357.073,233.794 
					358.382,235.104 356.664,235.104 354.7,233.14 356.664,231.176 358.382,231.176 357.073,232.485 361.124,232.485 				"/>
				<polygon fill-rule="evenodd" clip-rule="evenodd" fill="#939598" points="365.312,232.485 365.312,233.794 369.363,233.794 
					368.054,235.104 369.772,235.104 371.737,233.14 369.772,231.176 368.054,231.176 369.363,232.485 365.312,232.485 				"/>
				<path fill-rule="evenodd" clip-rule="evenodd" fill="#58595B" d="M378.578,230.441c0.774,0,1.472,0.324,1.964,0.845v-1.338
					l0.736,0.737l0,1.965h-1.964l-0.737-0.737h1.373c-0.337-0.376-0.827-0.614-1.373-0.614c-0.935,0-1.705,0.695-1.825,1.597h-0.865
					C376.012,231.518,377.169,230.441,378.578,230.441L378.578,230.441z M378.578,234.982c0.934,0,1.705-0.694,1.825-1.596h0.865
					c-0.124,1.376-1.281,2.455-2.69,2.455c-0.773,0-1.472-0.327-1.964-0.849v1.34l-0.736-0.737v-1.964h1.964l0.736,0.737h-1.372
					C377.542,234.746,378.033,234.982,378.578,234.982L378.578,234.982z"/>
				<path fill-rule="evenodd" clip-rule="evenodd" fill="#A7A9AC" d="M552.518,225.635h80.374c1.624,0,2.952,0.779,2.952,1.731
					v11.549c0,0.952-1.328,1.73-2.952,1.73h-80.374c-1.623,0-2.951-0.778-2.951-1.73v-11.549
					C549.567,226.414,550.895,225.635,552.518,225.635L552.518,225.635z"/>
				<path fill-rule="evenodd" clip-rule="evenodd" fill="#FFFFFF" d="M552.498,225.635h79.798c1.611,0,2.93,0.744,2.93,1.652v11.027
					c0,0.91-1.319,1.652-2.93,1.652h-79.798c-1.611,0-2.931-0.742-2.931-1.652v-11.027
					C549.567,226.379,550.886,225.635,552.498,225.635L552.498,225.635z"/>
				<g>
					<circle fill="#A7A9AC" cx="626.373" cy="232.042" r="2.841"/>
					<circle fill="#FFFFFF" cx="626.373" cy="231.977" r="2.291"/>
					
						<rect x="629.287" y="233.232" transform="matrix(0.7087 -0.7055 0.7055 0.7087 17.3963 512.8209)" fill="#A7A9AC" width="0.778" height="4.227"/>
				</g>
				<path fill="#999999" d="M542.716,225.991h-66.634h-13.739h-66.635c-1.623,0-2.952,0.779-2.952,1.731v11.55
					c0,0.951,1.329,1.73,2.952,1.73h66.635h13.739h66.634c1.623,0,2.952-0.779,2.952-1.73v-11.55
					C545.667,226.771,544.339,225.991,542.716,225.991z"/>
				<path fill="#FFFFFF" d="M542.121,225.991h-66.79h-13.01h-66.789c-1.611,0-2.931,0.744-2.931,1.653v11.027
					c0,0.907,1.319,1.652,2.931,1.652h66.789h13.01h66.79c1.61,0,2.93-0.745,2.93-1.652v-11.027
					C545.051,226.735,543.731,225.991,542.121,225.991z"/>
			</g>
			<g>
				<path fill="#58595B" d="M399.861,236.101c0,0.019-0.004,0.037-0.014,0.054c-0.01,0.015-0.025,0.027-0.045,0.038
					c-0.021,0.009-0.05,0.018-0.086,0.023c-0.037,0.007-0.082,0.009-0.136,0.009c-0.058,0-0.105-0.002-0.142-0.009
					c-0.036-0.006-0.064-0.015-0.086-0.023c-0.021-0.011-0.035-0.023-0.045-0.038c-0.01-0.017-0.015-0.035-0.015-0.054v-2.569
					c0-0.27-0.021-0.486-0.062-0.652c-0.041-0.171-0.104-0.312-0.187-0.432c-0.083-0.12-0.189-0.213-0.319-0.278
					c-0.128-0.064-0.28-0.097-0.451-0.097c-0.221,0-0.441,0.076-0.661,0.233c-0.221,0.156-0.453,0.386-0.695,0.688v3.106
					c0,0.019-0.005,0.037-0.015,0.054c-0.009,0.015-0.024,0.027-0.045,0.038c-0.021,0.009-0.049,0.018-0.085,0.023
					c-0.038,0.007-0.084,0.009-0.142,0.009c-0.055,0-0.099-0.002-0.136-0.009c-0.037-0.006-0.066-0.015-0.089-0.023
					c-0.022-0.011-0.038-0.023-0.045-0.038c-0.009-0.017-0.012-0.035-0.012-0.054v-6.452c0-0.019,0.003-0.035,0.012-0.053
					c0.007-0.015,0.023-0.028,0.045-0.041c0.022-0.01,0.052-0.019,0.089-0.023c0.037-0.005,0.081-0.007,0.136-0.007
					c0.058,0,0.104,0.002,0.142,0.007c0.036,0.005,0.064,0.014,0.085,0.023c0.021,0.013,0.036,0.026,0.045,0.041
					c0.01,0.018,0.015,0.034,0.015,0.053v2.705c0.236-0.263,0.473-0.454,0.708-0.577c0.237-0.122,0.473-0.185,0.708-0.185
					c0.284,0,0.523,0.048,0.718,0.145c0.194,0.095,0.352,0.225,0.471,0.388c0.12,0.161,0.206,0.352,0.259,0.569
					c0.053,0.216,0.078,0.479,0.078,0.785V236.101z"/>
				<path fill="#58595B" d="M406.627,235.842c0,0.068-0.004,0.121-0.014,0.163c-0.01,0.041-0.027,0.074-0.052,0.096
					c-0.027,0.024-0.062,0.044-0.106,0.065c-0.045,0.021-0.098,0.038-0.158,0.056c-0.061,0.015-0.125,0.027-0.191,0.036
					c-0.068,0.006-0.133,0.012-0.197,0.012c-0.217,0-0.401-0.029-0.551-0.088c-0.15-0.057-0.272-0.143-0.366-0.26
					c-0.094-0.117-0.163-0.265-0.207-0.443c-0.042-0.178-0.063-0.389-0.063-0.631v-2.696h-2.307v2.619
					c0,0.328,0.046,0.579,0.141,0.751c0.093,0.173,0.265,0.258,0.515,0.258c0.077,0,0.146-0.007,0.208-0.023
					c0.062-0.016,0.118-0.033,0.166-0.052c0.047-0.021,0.087-0.037,0.121-0.053c0.034-0.017,0.063-0.023,0.088-0.023
					c0.017,0,0.03,0.002,0.044,0.008c0.013,0.008,0.022,0.019,0.031,0.037c0.007,0.017,0.014,0.041,0.019,0.066
					c0.005,0.027,0.008,0.062,0.008,0.103c0,0.035-0.001,0.064-0.002,0.085c-0.003,0.021-0.005,0.042-0.01,0.064
					c-0.005,0.022-0.013,0.043-0.022,0.064s-0.026,0.04-0.05,0.06c-0.025,0.021-0.057,0.039-0.1,0.058
					c-0.044,0.02-0.095,0.035-0.154,0.05c-0.06,0.014-0.122,0.026-0.189,0.035c-0.067,0.006-0.132,0.012-0.196,0.012
					c-0.214,0-0.396-0.029-0.545-0.088c-0.15-0.057-0.273-0.143-0.369-0.26c-0.096-0.117-0.165-0.265-0.208-0.443
					c-0.042-0.178-0.064-0.389-0.064-0.631v-2.696h-0.645c-0.045,0-0.081-0.02-0.105-0.059c-0.026-0.04-0.039-0.101-0.039-0.18
					c0-0.042,0.003-0.078,0.009-0.107c0.007-0.03,0.016-0.056,0.029-0.076c0.012-0.021,0.028-0.038,0.045-0.045
					c0.018-0.011,0.037-0.016,0.06-0.016h0.645v-1.062c0-0.02,0.004-0.036,0.012-0.053c0.008-0.017,0.024-0.029,0.045-0.041
					c0.023-0.011,0.052-0.02,0.088-0.023c0.038-0.005,0.083-0.007,0.137-0.007c0.058,0,0.104,0.002,0.141,0.007
					c0.037,0.004,0.065,0.013,0.087,0.023c0.02,0.012,0.035,0.024,0.045,0.041c0.01,0.017,0.015,0.033,0.015,0.053v1.062h2.307
					v-1.26c0-0.019,0.003-0.036,0.012-0.052c0.008-0.016,0.023-0.028,0.045-0.039c0.022-0.008,0.052-0.018,0.088-0.023
					c0.037-0.007,0.083-0.011,0.137-0.011c0.053,0,0.1,0.004,0.139,0.011c0.038,0.006,0.067,0.016,0.087,0.023
					c0.021,0.011,0.037,0.023,0.046,0.039c0.01,0.016,0.014,0.033,0.014,0.052v1.26h1.197c0.022,0,0.042,0.005,0.058,0.016
					c0.016,0.007,0.031,0.023,0.042,0.045c0.014,0.021,0.023,0.046,0.029,0.076c0.007,0.029,0.01,0.065,0.01,0.107
					c0,0.079-0.013,0.14-0.039,0.18c-0.025,0.039-0.058,0.059-0.1,0.059h-1.197v2.619c0,0.328,0.047,0.579,0.142,0.751
					c0.095,0.173,0.264,0.258,0.51,0.258c0.077,0,0.146-0.007,0.208-0.023c0.062-0.016,0.117-0.033,0.165-0.052
					c0.048-0.021,0.09-0.037,0.125-0.053c0.036-0.017,0.065-0.023,0.091-0.023c0.016,0,0.029,0.002,0.042,0.008
					c0.01,0.008,0.02,0.019,0.027,0.037c0.008,0.017,0.014,0.041,0.02,0.066C406.626,235.767,406.627,235.801,406.627,235.842z"/>
				<path fill="#58595B" d="M411.871,233.872c0,0.368-0.04,0.701-0.122,0.999c-0.081,0.297-0.2,0.55-0.358,0.757
					s-0.354,0.366-0.587,0.479c-0.232,0.114-0.5,0.171-0.799,0.171c-0.127,0-0.247-0.015-0.358-0.042
					c-0.112-0.026-0.221-0.067-0.329-0.125c-0.107-0.059-0.214-0.13-0.321-0.217c-0.106-0.085-0.219-0.189-0.337-0.311v2.235
					c0,0.02-0.004,0.036-0.015,0.054c-0.009,0.016-0.024,0.027-0.044,0.041c-0.021,0.009-0.049,0.018-0.087,0.023
					c-0.037,0.003-0.083,0.006-0.141,0.006c-0.054,0-0.1-0.003-0.136-0.006c-0.037-0.006-0.066-0.015-0.089-0.023
					c-0.022-0.014-0.037-0.025-0.045-0.041c-0.007-0.018-0.012-0.034-0.012-0.054v-6.049c0-0.022,0.005-0.044,0.012-0.059
					c0.008-0.016,0.023-0.027,0.043-0.038c0.021-0.01,0.048-0.017,0.081-0.021s0.074-0.007,0.123-0.007
					c0.047,0,0.087,0.002,0.119,0.007c0.032,0.005,0.06,0.012,0.082,0.021c0.022,0.011,0.039,0.022,0.048,0.038
					c0.009,0.015,0.014,0.036,0.014,0.059v0.626c0.135-0.137,0.261-0.257,0.383-0.357c0.121-0.1,0.241-0.184,0.364-0.251
					c0.121-0.067,0.246-0.115,0.373-0.148c0.128-0.032,0.263-0.048,0.407-0.048c0.312,0,0.579,0.061,0.798,0.181
					c0.222,0.12,0.401,0.281,0.539,0.489c0.139,0.208,0.24,0.45,0.302,0.728C411.84,233.262,411.871,233.557,411.871,233.872z
					 M411.273,233.961c0-0.242-0.02-0.476-0.058-0.701s-0.103-0.424-0.193-0.601c-0.091-0.176-0.212-0.316-0.365-0.421
					c-0.151-0.104-0.342-0.157-0.572-0.157c-0.114,0-0.227,0.016-0.336,0.047c-0.111,0.033-0.224,0.084-0.338,0.157
					c-0.115,0.073-0.235,0.169-0.359,0.285c-0.125,0.117-0.255,0.262-0.392,0.435v1.886c0.239,0.29,0.468,0.513,0.687,0.667
					c0.218,0.156,0.447,0.231,0.687,0.231c0.22,0,0.409-0.052,0.567-0.159c0.158-0.106,0.287-0.248,0.386-0.422
					c0.098-0.173,0.172-0.37,0.218-0.589C411.25,234.4,411.273,234.183,411.273,233.961z"/>
				<path fill="#58595B" d="M414.493,232.339c0,0.086-0.006,0.158-0.017,0.218c-0.011,0.059-0.034,0.106-0.065,0.141
					c-0.031,0.035-0.074,0.062-0.127,0.075c-0.052,0.014-0.12,0.021-0.202,0.021c-0.083,0-0.151-0.007-0.202-0.021
					c-0.05-0.014-0.093-0.04-0.124-0.075c-0.032-0.034-0.053-0.082-0.064-0.141c-0.012-0.06-0.017-0.132-0.017-0.218
					c0-0.093,0.005-0.169,0.017-0.228c0.011-0.059,0.033-0.106,0.064-0.142c0.031-0.036,0.074-0.059,0.124-0.073
					c0.051-0.015,0.119-0.021,0.202-0.021c0.082,0,0.15,0.006,0.202,0.021c0.053,0.015,0.096,0.037,0.127,0.073
					c0.032,0.035,0.054,0.083,0.065,0.142C414.487,232.17,414.493,232.246,414.493,232.339z M414.493,235.771
					c0,0.089-0.006,0.163-0.017,0.222c-0.011,0.06-0.034,0.105-0.065,0.143c-0.031,0.033-0.074,0.058-0.127,0.072
					c-0.052,0.015-0.12,0.022-0.202,0.022c-0.083,0-0.151-0.008-0.202-0.022c-0.05-0.015-0.093-0.039-0.124-0.072
					c-0.032-0.037-0.053-0.083-0.064-0.143c-0.012-0.059-0.017-0.133-0.017-0.222c0-0.09,0.005-0.165,0.017-0.226
					c0.011-0.061,0.033-0.107,0.064-0.142c0.031-0.034,0.074-0.059,0.124-0.071c0.051-0.015,0.119-0.022,0.202-0.022
					c0.082,0,0.15,0.008,0.202,0.022c0.053,0.013,0.096,0.037,0.127,0.071c0.032,0.034,0.054,0.081,0.065,0.142
					C414.487,235.606,414.493,235.682,414.493,235.771z"/>
				<path fill="#58595B" d="M416.189,237.307c-0.012,0.039-0.027,0.068-0.044,0.091s-0.038,0.04-0.063,0.053
					c-0.023,0.013-0.052,0.021-0.086,0.026c-0.033,0.005-0.074,0.008-0.122,0.008c-0.047,0-0.09-0.004-0.127-0.014
					c-0.037-0.011-0.066-0.023-0.088-0.042c-0.022-0.017-0.036-0.04-0.041-0.066c-0.004-0.028,0-0.059,0.017-0.094l2.919-7.888
					c0.014-0.038,0.027-0.068,0.043-0.092c0.016-0.021,0.037-0.04,0.06-0.052c0.024-0.013,0.054-0.022,0.089-0.026
					c0.034-0.005,0.076-0.008,0.124-0.008s0.089,0.005,0.124,0.016c0.036,0.011,0.063,0.023,0.084,0.04
					c0.021,0.019,0.034,0.04,0.041,0.067c0.006,0.026,0.003,0.058-0.01,0.094L416.189,237.307z"/>
				<path fill="#58595B" d="M420.065,237.307c-0.013,0.039-0.028,0.068-0.046,0.091c-0.017,0.022-0.038,0.04-0.062,0.053
					s-0.053,0.021-0.086,0.026c-0.033,0.005-0.074,0.008-0.122,0.008c-0.047,0-0.091-0.004-0.127-0.014
					c-0.036-0.011-0.066-0.023-0.087-0.042c-0.023-0.017-0.037-0.04-0.042-0.066c-0.005-0.028,0-0.059,0.017-0.094l2.919-7.888
					c0.014-0.038,0.028-0.068,0.044-0.092c0.016-0.021,0.037-0.04,0.06-0.052c0.023-0.013,0.054-0.022,0.089-0.026
					c0.035-0.005,0.077-0.008,0.125-0.008c0.048,0,0.089,0.005,0.124,0.016c0.036,0.011,0.063,0.023,0.084,0.04
					c0.021,0.019,0.034,0.04,0.041,0.067c0.006,0.026,0.003,0.058-0.009,0.094L420.065,237.307z"/>
			</g>
			<g>
				<polygon fill-rule="evenodd" clip-rule="evenodd" fill="#E6E7E8" points="353.285,249.475 630.175,249.475 630.175,391.324 
					353.285,391.324 353.285,249.475 				"/>
				<polygon fill-rule="evenodd" clip-rule="evenodd" fill="#FFDC66" points="557.482,300.424 620.348,300.424 620.348,264.523 
					557.482,264.523 557.482,300.424 				"/>
				<polygon fill-rule="evenodd" clip-rule="evenodd" fill="#F58220" points="557.482,384.876 620.348,384.876 620.348,342.768 
					557.482,342.768 557.482,384.876 				"/>
				<polygon fill-rule="evenodd" clip-rule="evenodd" fill="#808285" points="364.19,268.818 427.055,268.818 427.055,264.523 
					364.19,264.523 364.19,268.818 				"/>
				<polygon fill-rule="evenodd" clip-rule="evenodd" fill="#BCBDC0" points="364.19,275.345 538.022,275.345 538.022,271.052 
					364.19,271.052 364.19,275.345 				"/>
				<polygon fill-rule="evenodd" clip-rule="evenodd" fill="#BCBDC0" points="364.19,281.872 538.022,281.872 538.022,277.579 
					364.19,277.579 364.19,281.872 				"/>
				<polygon fill-rule="evenodd" clip-rule="evenodd" fill="#BCBDC0" points="364.19,288.4 538.022,288.4 538.022,284.105 
					364.19,284.105 364.19,288.4 				"/>
				<polygon fill-rule="evenodd" clip-rule="evenodd" fill="#BCBDC0" points="364.19,294.928 461.702,294.928 461.702,290.634 
					364.19,290.634 364.19,294.928 				"/>
				<polygon fill-rule="evenodd" clip-rule="evenodd" fill="#808285" points="364.19,305.351 399.455,305.351 399.455,301.056 
					364.19,301.056 364.19,305.351 				"/>
				<polygon fill-rule="evenodd" clip-rule="evenodd" fill="#BCBDC0" points="364.19,311.877 461.702,311.877 461.702,307.586 
					364.19,307.586 364.19,311.877 				"/>
				<polygon fill-rule="evenodd" clip-rule="evenodd" fill="#BCBDC0" points="364.19,318.406 461.702,318.406 461.702,314.111 
					364.19,314.111 364.19,318.406 				"/>
				<polygon fill-rule="evenodd" clip-rule="evenodd" fill="#BCBDC0" points="364.19,324.933 461.702,324.933 461.702,320.64 
					364.19,320.64 364.19,324.933 				"/>
				<polygon fill-rule="evenodd" clip-rule="evenodd" fill="#BCBDC0" points="364.19,331.459 418.888,331.459 418.888,327.166 
					364.19,327.166 364.19,331.459 				"/>
				<polygon fill-rule="evenodd" clip-rule="evenodd" fill="#808285" points="364.19,341.884 399.455,341.884 399.455,337.588 
					364.19,337.588 364.19,341.884 				"/>
				<polygon fill-rule="evenodd" clip-rule="evenodd" fill="#BCBDC0" points="364.19,348.409 461.702,348.409 461.702,344.116 
					364.19,344.116 364.19,348.409 				"/>
				<polygon fill-rule="evenodd" clip-rule="evenodd" fill="#BCBDC0" points="364.19,354.938 461.702,354.938 461.702,350.643 
					364.19,350.643 364.19,354.938 				"/>
				<polygon fill-rule="evenodd" clip-rule="evenodd" fill="#BCBDC0" points="364.19,361.465 461.702,361.465 461.702,357.17 
					364.19,357.17 364.19,361.465 				"/>
				<polygon fill-rule="evenodd" clip-rule="evenodd" fill="#BCBDC0" points="364.19,367.992 418.888,367.992 418.888,363.699 
					364.19,363.699 364.19,367.992 				"/>
				<polygon fill-rule="evenodd" clip-rule="evenodd" fill="#C6DD79" points="557.482,336.325 620.348,336.325 620.348,307.504 
					557.482,307.504 557.482,336.325 				"/>
				<polygon fill-rule="evenodd" clip-rule="evenodd" fill="#A6CE39" points="471.473,334.497 481.981,334.497 481.981,371.981 
					471.473,371.981 471.473,334.497 				"/>
				<polygon fill-rule="evenodd" clip-rule="evenodd" fill="#47A5AE" points="471.473,343.87 481.981,343.87 481.981,371.981 
					471.473,371.981 471.473,343.87 				"/>
				<polygon fill-rule="evenodd" clip-rule="evenodd" fill="#F58220" points="532.065,307.586 542.572,307.586 542.572,372.061 
					532.065,372.061 532.065,307.586 				"/>
				<polygon fill-rule="evenodd" clip-rule="evenodd" fill="#47A5AE" points="532.065,327.734 542.572,327.734 542.572,372.061 
					532.065,372.061 532.065,327.734 				"/>
				<polygon fill-rule="evenodd" clip-rule="evenodd" fill="#A6CE39" points="489.447,337.312 499.955,337.312 499.955,371.932 
					489.447,371.932 489.447,337.312 				"/>
				<polygon fill-rule="evenodd" clip-rule="evenodd" fill="#47A5AE" points="489.447,348.131 499.955,348.131 499.955,371.932 
					489.447,371.932 489.447,348.131 				"/>
				<polygon fill-rule="evenodd" clip-rule="evenodd" fill="#A6CE39" points="503.457,315.047 513.965,315.047 513.965,371.932 
					503.457,371.932 503.457,315.047 				"/>
				<polygon fill-rule="evenodd" clip-rule="evenodd" fill="#47A5AE" points="503.457,327.166 513.965,327.166 513.965,371.932 
					503.457,371.932 503.457,327.166 				"/>
				<polygon fill-rule="evenodd" clip-rule="evenodd" fill="#A6CE39" points="517.467,326.194 527.974,326.194 527.974,371.932 
					517.467,371.932 517.467,326.194 				"/>
				<polygon fill-rule="evenodd" clip-rule="evenodd" fill="#47A5AE" points="517.467,336.468 527.974,336.468 527.974,371.932 
					517.467,371.932 517.467,336.468 				"/>
				<polygon fill-rule="evenodd" clip-rule="evenodd" fill="#3E89C9" points="487.158,326.194 487.655,326.635 470.015,346.494 
					469.517,346.055 487.158,326.194 				"/>
				<polygon fill-rule="evenodd" clip-rule="evenodd" fill="#3E89C9" points="495.255,337.134 494.71,337.514 487.134,326.604 
					487.68,326.226 495.255,337.134 				"/>
				<polygon fill-rule="evenodd" clip-rule="evenodd" fill="#3E89C9" points="511.183,301.734 511.787,302.011 495.286,337.462 
					494.682,337.186 511.183,301.734 				"/>
				<polygon fill-rule="evenodd" clip-rule="evenodd" fill="#3E89C9" points="522.098,322.534 521.306,322.388 510.957,302.969 
					511.749,303.113 522.098,322.534 				"/>
				<polygon fill-rule="evenodd" clip-rule="evenodd" fill="#3E89C9" points="522.408,324.438 522.142,323.818 538.05,297.973 
					538.315,298.594 522.408,324.438 				"/>
				<path fill-rule="evenodd" clip-rule="evenodd" fill="#3E89C9" d="M487.407,324.253c1.193,0,2.162,0.968,2.162,2.163
					c0,1.191-0.968,2.16-2.162,2.16c-1.194,0-2.163-0.969-2.163-2.16C485.245,325.221,486.213,324.253,487.407,324.253
					L487.407,324.253z"/>
				<path fill-rule="evenodd" clip-rule="evenodd" fill="#3E89C9" d="M494.926,334.497c1.195,0,2.163,0.968,2.163,2.162
					c0,1.193-0.968,2.162-2.163,2.162c-1.193,0-2.161-0.969-2.161-2.162C492.765,335.465,493.732,334.497,494.926,334.497
					L494.926,334.497z"/>
				<path fill-rule="evenodd" clip-rule="evenodd" fill="#3E89C9" d="M511.46,300.549c1.195,0,2.162,0.968,2.162,2.162
					s-0.967,2.162-2.162,2.162c-1.193,0-2.161-0.968-2.161-2.162S510.267,300.549,511.46,300.549L511.46,300.549z"/>
				<path fill-rule="evenodd" clip-rule="evenodd" fill="#3E89C9" d="M522.098,322.091c1.194,0,2.162,0.969,2.162,2.162
					c0,1.194-0.968,2.163-2.162,2.163c-1.194,0-2.162-0.969-2.162-2.163C519.937,323.06,520.904,322.091,522.098,322.091
					L522.098,322.091z"/>
				<path fill-rule="evenodd" clip-rule="evenodd" fill="#3E89C9" d="M538.022,296.825c1.194,0,2.162,0.968,2.162,2.163
					c0,1.193-0.967,2.162-2.162,2.162c-1.194,0-2.163-0.969-2.163-2.162C535.859,297.793,536.828,296.825,538.022,296.825
					L538.022,296.825z"/>
				<path fill-rule="evenodd" clip-rule="evenodd" fill="#3E89C9" d="M469.517,343.891c1.194,0,2.162,0.969,2.162,2.164
					c0,1.191-0.968,2.159-2.162,2.159s-2.162-0.968-2.162-2.159C467.355,344.859,468.323,343.891,469.517,343.891L469.517,343.891z"
					/>
			</g>
		</g>
		<rect x="284.496" y="411.032" fill="#1C75BC" width="418.093" height="18.647"/>
	</g>
	<g>
		<polygon fill-rule="evenodd" clip-rule="evenodd" fill="#E6E7E8" points="144.04,523.815 303.797,523.815 303.797,353.144 
			269.636,300.018 144.037,300.018 144.04,523.815 		"/>
		<path fill-rule="evenodd" clip-rule="evenodd" fill="#F5F5F5" d="M303.797,353.144c-68.149-33.662-45.25,0.768-34.161-53.123
			L303.797,353.144L303.797,353.144z"/>
		<polygon fill-rule="evenodd" clip-rule="evenodd" fill="#E6E7E8" points="134.121,532.342 293.877,532.342 293.877,526.773 
			140.385,526.773 140.383,308.546 134.118,308.546 134.121,532.342 		"/>
		<polygon fill-rule="evenodd" clip-rule="evenodd" fill="#E6E7E8" points="125.092,540.691 284.85,540.691 284.85,535.123 
			131.358,535.123 131.354,316.896 125.09,316.896 125.092,540.691 		"/>
		<g>
			<g>
				<path d="M180.467,375.759c-0.792,0.407-2.45,0.816-4.543,0.816c-4.849,0-8.474-3.063-8.474-8.729c0-5.41,3.65-9.036,8.984-9.036
					c2.119,0,3.498,0.46,4.084,0.767l-0.562,1.812c-0.816-0.408-2.017-0.714-3.445-0.714c-4.033,0-6.713,2.578-6.713,7.096
					c0,4.238,2.424,6.917,6.585,6.917c1.378,0,2.757-0.281,3.649-0.715L180.467,375.759z"/>
			</g>
			<g>
				<path d="M197.425,367.514c0,5.897-3.6,9.062-7.99,9.062c-4.568,0-7.733-3.548-7.733-8.754c0-5.462,3.369-9.036,7.965-9.036
					C194.387,358.785,197.425,362.384,197.425,367.514z M184.049,367.77c0,3.701,1.991,6.994,5.514,6.994s5.514-3.241,5.514-7.148
					c0-3.445-1.787-7.018-5.488-7.018C185.887,360.598,184.049,364.018,184.049,367.77z"/>
				<path d="M201.15,376.295V359.09h2.45l5.488,8.704c1.25,2.017,2.271,3.829,3.062,5.59l0.077-0.024
					c-0.204-2.298-0.255-4.391-0.255-7.071v-7.198h2.093v17.205h-2.247l-5.462-8.729c-1.199-1.915-2.349-3.88-3.19-5.743
					l-0.077,0.025c0.128,2.17,0.154,4.236,0.154,7.096v7.352H201.15z"/>
				<path d="M222.055,360.979h-5.233v-1.89h12.737v1.89H224.3v15.315h-2.246V360.979z"/>
				<path d="M241.197,368.229h-6.662v6.203h7.454v1.863h-9.7V359.09h9.316v1.864h-7.071v5.437h6.662V368.229z"/>
				<path d="M245.714,376.295V359.09h2.451l5.487,8.704c1.251,2.017,2.272,3.829,3.063,5.59l0.077-0.024
					c-0.205-2.298-0.254-4.391-0.254-7.071v-7.198h2.092v17.205h-2.246l-5.462-8.729c-1.2-1.915-2.349-3.88-3.191-5.743
					l-0.076,0.025c0.127,2.17,0.153,4.236,0.153,7.096v7.352H245.714z"/>
				<path d="M266.619,360.979h-5.233v-1.89h12.737v1.89h-5.258v15.315h-2.246V360.979z"/>
			</g>
		</g>
		<polygon fill-rule="evenodd" clip-rule="evenodd" fill="#939598" points="166.529,421.011 273.104,421.011 273.104,428.346 
			166.529,428.346 166.529,421.011 		"/>
		<polygon fill-rule="evenodd" clip-rule="evenodd" fill="#939598" points="166.529,432.299 273.104,432.299 273.104,439.636 
			166.529,439.636 166.529,432.299 		"/>
		<polygon fill-rule="evenodd" clip-rule="evenodd" fill="#939598" points="166.529,443.588 224.69,443.588 224.69,450.924 
			166.529,450.924 166.529,443.588 		"/>
		<polygon fill-rule="evenodd" clip-rule="evenodd" fill="#939598" points="166.529,398.62 273.104,398.62 273.104,405.954 
			166.529,405.954 166.529,398.62 		"/>
		<polygon fill-rule="evenodd" clip-rule="evenodd" fill="#939598" points="166.529,409.909 273.104,409.909 273.104,417.243 
			166.529,417.243 166.529,409.909 		"/>
	</g>
	<g>
		<g>
			<circle fill="#FFFAFC" cx="785.953" cy="394.283" r="90.605"/>
		</g>
		<g>
			
				<rect x="660.741" y="465.395" transform="matrix(0.7071 0.7071 -0.7071 0.7071 551.3391 -329.5011)" fill="#FBB040" width="25.389" height="70.836"/>
			<path fill="#414042" d="M851.231,323.751c-36.918-36.919-96.776-36.919-133.694,0c-36.918,36.919-36.917,96.776,0.001,133.693
				c36.917,36.921,96.775,36.921,133.693,0C888.149,420.527,888.149,360.67,851.231,323.751z M726.243,448.741
				c-32.113-32.112-32.113-84.174,0-116.285c32.112-32.112,84.174-32.112,116.286,0c32.111,32.111,32.111,84.173,0,116.285
				C810.415,480.853,758.354,480.853,726.243,448.741z"/>
			<path fill="#414042" d="M711.947,486.066c-0.875,0.875-2.294,0.875-3.17,0l-20.597-20.597c-0.875-0.877-0.875-2.294,0-3.169
				l20.597-20.598c0.876-0.877,2.295-0.877,3.17,0l20.597,20.598c0.875,0.875,0.875,2.292,0,3.169L711.947,486.066z"/>
			<path fill="#414042" d="M638.077,559.973c-0.877,0.876-2.297,0.876-3.173,0l-20.629-20.629c-0.876-0.877-0.876-2.297,0-3.174
				l20.629-20.627c0.876-0.878,2.296-0.878,3.173,0l20.628,20.627c0.876,0.877,0.876,2.297,0,3.174L638.077,559.973z"/>
			
				<rect x="663.32" y="459.167" transform="matrix(0.7072 0.707 -0.707 0.7072 545.0718 -326.9152)" fill="#F7941E" width="7.773" height="70.836"/>
		</g>
	</g>
	<g>
		<path fill="#EE2E24" d="M513.385,118.999c0-11.312-9.171-20.484-20.484-20.484c-11.312,0-20.484,9.171-20.484,20.484
			c0,3.871,1.074,7.489,2.94,10.577l0,0l17.544,49.211l17.544-49.211l0,0C512.31,126.488,513.385,122.869,513.385,118.999z"/>
		<circle fill="#AA4056" cx="492.9" cy="119.42" r="5.164"/>
	</g>
	<g>
		<path fill="#00AEEF" d="M756.192,401.707c0,2.144-0.388,4.064-1.16,5.76c-0.773,1.695-1.857,3.137-3.253,4.32
			c-1.397,1.185-3.055,2.09-4.975,2.71c-1.921,0.624-4.016,0.937-6.285,0.937c-1.546,0-3.004-0.143-4.376-0.43
			c-1.372-0.288-2.593-0.63-3.665-1.029c-1.073-0.398-1.977-0.806-2.712-1.216c-0.736-0.411-1.241-0.759-1.515-1.047
			c-0.274-0.287-0.474-0.622-0.598-1.01c-0.125-0.387-0.188-0.866-0.188-1.44c0-0.424,0.026-0.772,0.076-1.048
			c0.05-0.273,0.118-0.498,0.206-0.672c0.087-0.175,0.199-0.294,0.337-0.356c0.136-0.061,0.28-0.093,0.43-0.093
			c0.349,0,0.841,0.219,1.477,0.654c0.637,0.438,1.459,0.911,2.469,1.423c1.01,0.51,2.22,0.983,3.628,1.42
			c1.408,0.436,3.048,0.654,4.918,0.654c1.521,0,2.919-0.206,4.19-0.617c1.271-0.413,2.368-1.004,3.292-1.777
			c0.921-0.771,1.64-1.725,2.15-2.859c0.51-1.136,0.767-2.426,0.767-3.873c0-1.495-0.325-2.779-0.973-3.852
			c-0.648-1.071-1.502-2.014-2.562-2.824s-2.263-1.546-3.609-2.207c-1.346-0.66-2.725-1.32-4.133-1.981
			c-1.409-0.662-2.786-1.378-4.132-2.151s-2.55-1.676-3.61-2.712c-1.059-1.034-1.913-2.25-2.561-3.646
			c-0.649-1.397-0.974-3.055-0.974-4.975c0-1.87,0.337-3.549,1.01-5.032s1.621-2.742,2.843-3.776
			c1.22-1.035,2.686-1.826,4.395-2.375c1.708-0.549,3.584-0.824,5.629-0.824c1.022,0,2.057,0.101,3.104,0.3
			c1.048,0.201,2.039,0.455,2.974,0.768c0.936,0.312,1.771,0.66,2.506,1.047c0.735,0.386,1.222,0.698,1.458,0.935
			c0.237,0.238,0.387,0.411,0.449,0.524c0.062,0.111,0.119,0.257,0.169,0.429c0.049,0.176,0.086,0.381,0.112,0.618
			c0.024,0.237,0.037,0.53,0.037,0.879c0,0.324-0.019,0.617-0.055,0.88c-0.039,0.261-0.094,0.486-0.169,0.673
			c-0.074,0.187-0.167,0.329-0.28,0.431c-0.113,0.1-0.244,0.148-0.393,0.148c-0.275,0-0.693-0.182-1.253-0.542
			s-1.266-0.767-2.113-1.216c-0.848-0.449-1.858-0.854-3.029-1.216c-1.172-0.36-2.506-0.542-4.003-0.542
			c-1.471,0-2.754,0.199-3.852,0.598c-1.098,0.399-2.008,0.942-2.731,1.627c-0.722,0.687-1.265,1.491-1.626,2.413
			c-0.361,0.924-0.542,1.896-0.542,2.917c0,1.497,0.323,2.781,0.973,3.854c0.648,1.072,1.508,2.019,2.58,2.841
			c1.073,0.824,2.288,1.566,3.648,2.226c1.357,0.662,2.743,1.322,4.151,1.982c1.408,0.662,2.793,1.372,4.152,2.134
			c1.358,0.76,2.575,1.657,3.647,2.692c1.071,1.034,1.931,2.245,2.581,3.629C755.869,398.172,756.192,399.812,756.192,401.707z"/>
		<path fill="#00AEEF" d="M794.851,412.777c0,0.324-0.024,0.61-0.074,0.859c-0.052,0.252-0.133,0.463-0.243,0.637
			c-0.112,0.175-0.242,0.307-0.394,0.393c-0.148,0.088-0.312,0.132-0.486,0.132h-22.666c-0.449,0-0.91-0.169-1.384-0.506
			c-0.473-0.338-0.711-0.954-0.711-1.851v-43.687c0-0.896,0.238-1.515,0.711-1.851c0.474-0.338,0.935-0.507,1.384-0.507h22.33
			c0.174,0,0.336,0.046,0.484,0.132c0.151,0.087,0.275,0.219,0.377,0.393c0.099,0.175,0.174,0.394,0.223,0.653
			c0.049,0.263,0.074,0.569,0.074,0.917c0,0.324-0.025,0.612-0.074,0.86c-0.049,0.251-0.124,0.456-0.223,0.618
			c-0.102,0.162-0.226,0.285-0.377,0.374c-0.148,0.087-0.311,0.13-0.484,0.13h-19.861v17.018h17.13c0.199,0,0.374,0.045,0.524,0.132
			c0.15,0.09,0.273,0.213,0.375,0.374c0.098,0.163,0.174,0.375,0.225,0.636c0.049,0.262,0.074,0.569,0.074,0.917
			c0,0.324-0.025,0.604-0.074,0.84c-0.051,0.239-0.127,0.431-0.225,0.582c-0.102,0.148-0.225,0.261-0.375,0.336
			c-0.15,0.074-0.325,0.113-0.524,0.113h-17.13v19.299h20.197c0.174,0,0.338,0.044,0.486,0.131c0.151,0.088,0.281,0.213,0.394,0.373
			c0.11,0.164,0.191,0.376,0.243,0.635C794.826,412.124,794.851,412.429,794.851,412.777z"/>
		<path fill="#00AEEF" d="M846.676,390.037c0,3.865-0.443,7.362-1.328,10.491s-2.214,5.798-3.983,8.004
			c-1.771,2.208-4.002,3.909-6.695,5.104c-2.692,1.198-5.836,1.797-9.426,1.797s-6.678-0.566-9.256-1.703
			c-2.582-1.134-4.701-2.753-6.359-4.86s-2.881-4.683-3.664-7.725c-0.787-3.042-1.18-6.472-1.18-10.284
			c0-3.792,0.436-7.232,1.309-10.325c0.873-3.092,2.199-5.728,3.984-7.909c1.783-2.183,4.014-3.872,6.695-5.069
			c2.68-1.196,5.828-1.796,9.443-1.796c3.516,0,6.558,0.562,9.127,1.685c2.567,1.121,4.693,2.73,6.377,4.824
			c1.683,2.096,2.93,4.639,3.74,7.632C846.271,382.894,846.676,386.273,846.676,390.037z M841.812,390.448
			c0-2.866-0.268-5.555-0.801-8.062c-0.539-2.505-1.424-4.686-2.657-6.543c-1.234-1.859-2.875-3.318-4.919-4.377
			c-2.043-1.061-4.576-1.59-7.593-1.59c-2.991,0-5.517,0.555-7.573,1.664c-2.058,1.11-3.729,2.6-5.013,4.471
			c-1.284,1.869-2.206,4.051-2.769,6.544c-0.561,2.495-0.841,5.126-0.841,7.893c0,2.943,0.255,5.68,0.767,8.21
			c0.51,2.53,1.377,4.731,2.6,6.603c1.222,1.87,2.855,3.333,4.9,4.394c2.044,1.06,4.6,1.59,7.666,1.59c3.043,0,5.6-0.566,7.67-1.701
			c2.068-1.134,3.738-2.656,5.01-4.564c1.273-1.906,2.183-4.114,2.73-6.62C841.538,395.853,841.812,393.218,841.812,390.448z"/>
	</g>
	<g>
		<g>
			<path fill="#EA2327" d="M556.192,116.161c0,33.4,27.173,60.572,60.572,60.572c33.399,0,60.57-27.172,60.57-60.572
				c0-33.398-27.171-60.571-60.57-60.571C583.365,55.59,556.192,82.763,556.192,116.161z M569.075,116.161
				c0-26.295,21.393-47.689,47.689-47.689c26.295,0,47.688,21.394,47.688,47.689c0,26.296-21.393,47.689-47.688,47.689
				C590.468,163.851,569.075,142.457,569.075,116.161z"/>
			<path fill="#F1F0F0" d="M569.075,116.161c0,26.296,21.393,47.689,47.689,47.689c26.295,0,47.688-21.394,47.688-47.689
				c0-26.295-21.393-47.689-47.688-47.689C590.468,68.472,569.075,89.866,569.075,116.161z M581.958,116.161
				c0-19.192,15.613-34.806,34.807-34.806c19.192,0,34.806,15.613,34.806,34.806c0,19.193-15.614,34.807-34.806,34.807
				C597.571,150.968,581.958,135.354,581.958,116.161z"/>
			<path fill="#EA2327" d="M616.764,81.355c19.192,0,34.806,15.613,34.806,34.806c0,19.193-15.614,34.807-34.806,34.807
				c-19.193,0-34.807-15.614-34.807-34.807C581.958,96.969,597.571,81.355,616.764,81.355z"/>
			<path fill="#EA2327" d="M651.57,116.161c0,19.193-15.614,34.807-34.806,34.807c-19.193,0-34.807-15.614-34.807-34.807
				c0-19.192,15.613-34.806,34.807-34.806"/>
			<circle fill="#EA2327" cx="616.764" cy="116.161" r="21.924"/>
			<path fill="#F1F0F0" d="M594.84,116.161c0,12.108,9.815,21.924,21.924,21.924c12.108,0,21.923-9.816,21.923-21.924
				s-9.815-21.924-21.923-21.924C604.655,94.237,594.84,104.053,594.84,116.161z M604.421,116.161
				c0-6.816,5.526-12.343,12.343-12.343c6.815,0,12.342,5.526,12.342,12.343c0,6.817-5.527,12.342-12.342,12.342
				C609.947,128.503,604.421,122.978,604.421,116.161z"/>
			<circle fill="#EA2327" cx="616.764" cy="116.161" r="12.343"/>
		</g>
		<g>
			<path opacity="0.2" fill="#8B5E3C" d="M575.107,161.188l43.607-43.607c1.13-1.131,1.13-2.964,0-4.093l0,0
				c-1.13-1.131-2.963-1.131-4.094,0l-43.583,43.583L575.107,161.188z"/>
			<path fill="#8B5E3C" d="M619.148,116.855c-1.308,1.308-3.427,1.308-4.735,0L539.729,42.17c-1.307-1.308-1.307-3.427,0-4.735l0,0
				c1.308-1.308,3.427-1.308,4.735,0l74.685,74.685C620.456,113.427,620.456,115.548,619.148,116.855L619.148,116.855z"/>
			<polygon fill="#FFFFFF" points="543.287,36.675 546.976,17.432 566.69,38.509 563.664,56.635 			"/>
			<polygon fill="#FFFFFF" points="538.986,40.976 519.742,44.666 540.819,64.379 558.946,61.353 			"/>
		</g>
	</g>
</g>
</svg>
