<svg id="Layer_1" data-name="Layer 1" xmlns="http://www.w3.org/2000/svg" height="55.693px" viewBox="0 0 51.94 51.94"><title>browser-icon</title><g id="_02-Click" data-name="02-Click"><path d="M40.21,47.26a23,23,0,0,1-8.41,3.25c.45-.57.88-1.15,1.3-1.73A.6.6,0,0,0,33,48a4.76,4.76,0,0,1-1.1-1.55.58.58,0,0,0-1-.06c-.43.63-.88,1.24-1.35,1.85V42.58a2.46,2.46,0,0,0-.24-1.07l-1.9-4a.54.54,0,0,0-1,.23v1.07H21.27a32.62,32.62,0,0,1-1.78-9.23H23a.32.32,0,0,0,.3-.43,4.32,4.32,0,0,1-.14-2.36.31.31,0,0,0-.31-.38H19.49a32.62,32.62,0,0,1,1.78-9.24h5.11V23a.57.57,0,0,0,.62.56,4,4,0,0,1,1.8.26.56.56,0,0,0,.75-.53v-6h5.12a33,33,0,0,1,1.77,9.24h-.7a.41.41,0,0,0-.19.77l3.73,1.93a4.08,4.08,0,0,0,1.9.47h9.53a22.6,22.6,0,0,1-2.31,8.51,5.1,5.1,0,0,1-1.53,2,.76.76,0,0,0,0,1.08l1.45,1.44a.74.74,0,0,0,1.14-.1A25.95,25.95,0,0,0,28,2.06h0A26,26,0,1,0,42.31,49.67a.54.54,0,0,0,.08-.82l-1.53-1.52A.5.5,0,0,0,40.21,47.26Zm7.82-30a22.62,22.62,0,0,1,2.68,9.24H39.62A36.16,36.16,0,0,0,38,17.21ZM46,14H36.85A35.62,35.62,0,0,0,31.8,5.56,22.81,22.81,0,0,1,46,14ZM29.55,7.83A32.16,32.16,0,0,1,33.38,14H29.55ZM26.38,14H22.56a32.61,32.61,0,0,1,3.82-6.21ZM24.14,5.56A35.82,35.82,0,0,0,19.09,14H10A22.79,22.79,0,0,1,24.14,5.56ZM7.9,17.21h10a36.16,36.16,0,0,0-1.61,9.24H5.23A22.76,22.76,0,0,1,7.9,17.21Zm0,21.64a22.72,22.72,0,0,1-2.67-9.23H16.32a36.16,36.16,0,0,0,1.61,9.23ZM10,42h9.11a35.88,35.88,0,0,0,5.05,8.49A22.85,22.85,0,0,1,10,42Zm16.4,6.22A33,33,0,0,1,22.56,42h3.82Z" transform="translate(-2 -2.06)" style="fill:#2175aa"/><path d="M49.63,50.06a1.81,1.81,0,0,0,0-2.58l-6.79-6.8,2.84-2.74A1.83,1.83,0,0,0,45.26,35L28.19,26.15a1.83,1.83,0,0,0-2.48,2.44l8.53,17.07a1.85,1.85,0,0,0,1.33,1l.31,0a1.83,1.83,0,0,0,1.27-.51l3.05-2.94,6.85,6.84a1.81,1.81,0,0,0,2.58,0ZM36.4,41.8,31.5,32l9.81,5.08Z" transform="translate(-2 -2.06)" style="fill:#2175aa"/></g></svg>